<?xml version="1.0" encoding="UTF-8"?>
<svg id="Capa_2" data-name="Capa 2" xmlns="http://www.w3.org/2000/svg" viewBox="0 0 551.57 236.72">
  <defs>
    <style>
      .cls-1 {
        fill: #ec6620;
      }

      .cls-2 {
        fill: #120f09;
      }
    </style>
  </defs>
  <g id="Capa_1-2" data-name="Capa 1">
    <g>
      <path class="cls-1" d="M48.62,236.72c-8.27,0-16.26-1.7-23.53-5.8C12.35,223.73-.92,208.01.05,190.49c.91-16.32,12.46-26.91,18.01-32.01,15.34-14.07,29.24-16.93,42.69-19.7.75-.16,1.51-.31,2.27-.47,3.03-9.53,5.4-17.36,7.47-24.23,4.75-15.72,8.18-27.09,14.84-43.39,4.67-11.44,11.72-28.73,19.49-43.08C115.96,7.03,125.3-1.42,135.09.19c17.52,2.9,19.73,37.85,19.93,41.83.91,18.64-4.46,39.06-15.13,57.49-11.07,19.12-27.16,34.63-45.29,43.66-7.29,3.63-14.07,5.81-20.36,7.4-1.64,5.04-3.46,10.51-5.49,16.5-4.29,12.64-8.79,25.34-13.37,37.73l-13.53-5c4.53-12.27,8.99-24.84,13.24-37.36.98-2.88,1.91-5.64,2.79-8.29-10.23,2.29-19.59,5.38-30.05,14.97-4.78,4.38-12.78,11.72-13.36,22.17-.6,10.75,8.69,21.96,17.73,27.06,15.9,8.97,38.8.98,55.21-7.31,18.84-9.51,34.4-21.87,38.72-25.43,41.74-34.4,58.25-82.21,64.76-116.26l14.17,2.71c-6.95,36.38-24.7,87.55-69.76,124.69-9.42,7.76-50.68,39.97-86.65,39.97ZM132.74,14.49c-1.05.38-6.36,3.13-16.25,21.9-7.01,13.3-13.51,29.22-17.81,39.76-6.4,15.68-9.75,26.76-14.38,42.11-1.42,4.7-2.97,9.84-4.78,15.67,2.8-1,5.68-2.2,8.64-3.67,31.58-15.72,54.12-53.35,52.45-87.53-.31-6.26-1.47-13.26-3.11-18.71-1.92-6.38-3.96-8.92-4.76-9.53Z"/>
      <path class="cls-2" d="M137.09,125.02v36.88c0,2.47,3.04,3.68,4.72,1.87,1.1-1.18,2.17-2.38,3.23-3.59,3.81-4.35,7.45-8.97,10.87-13.82v-21.35h-18.82Z"/>
      <path class="cls-2" d="M220.06,125.02v81.83h-18.66v-11.32c-.39.63-.8,1.23-1.23,1.82-2.78,3.82-6.44,6.77-10.96,8.84-4.53,2.07-10.12,3.11-16.78,3.11-5.89,0-11.05-.71-15.46-2.13-4.42-1.42-8.13-3.68-11.13-6.79-1.29-1.33-2.43-2.83-3.42-4.5,3.54-2.96,7.01-6.11,10.34-9.36.98-.96,1.96-1.93,2.92-2.92.95-.97,2.58-.82,3.3.33.36.57.75,1.12,1.18,1.64,1.64,1.96,3.85,3.49,6.63,4.58,2.78,1.09,6.35,1.64,10.72,1.64,7.86,0,13.8-2.15,17.84-6.46,4.03-4.31,6.05-10.72,6.05-19.23v-41.08h18.66Z"/>
      <path class="cls-2" d="M363.28,161.19v45.66h-18.82v-44.03c0-3.49-.27-6.63-.82-9.41-.55-2.78-1.48-5.16-2.78-7.12-1.31-1.96-3.14-3.49-5.48-4.58-2.35-1.09-5.32-1.63-8.92-1.63-3.38,0-6.33.52-8.84,1.55-2.51,1.04-4.58,2.45-6.22,4.25-1.64,1.8-2.89,3.88-3.76,6.22-.87,2.35-1.31,4.88-1.31,7.61v47.14h-18.66v-47.3c0-2.62-.27-5.1-.82-7.45-.54-2.35-1.5-4.42-2.86-6.22-1.37-1.8-3.22-3.22-5.57-4.25s-5.32-1.55-8.92-1.55c-6.65,0-11.65,2.15-14.97,6.46-3.33,4.31-4.99,10.72-4.99,19.23v41.08h-18.82v-81.83h18.82v11.12c.34-.56.69-1.1,1.06-1.62,2.68-3.82,6.11-6.76,10.31-8.84,4.2-2.07,9.25-3.11,15.14-3.11,5.02,0,9.44.76,13.26,2.29,3.82,1.53,6.98,3.76,9.49,6.71,1.14,1.34,2.15,2.84,3.04,4.5.46-.73.94-1.44,1.46-2.13,2.56-3.44,5.91-6.19,10.07-8.26,4.14-2.07,9.27-3.11,15.38-3.11s11.18.71,15.55,2.13c4.36,1.42,7.94,3.68,10.72,6.79,2.78,3.11,4.85,7.12,6.22,12.03,1.36,4.91,2.05,10.8,2.05,17.68Z"/>
      <path class="cls-2" d="M457.8,171.5v-3.27c0-15.06-3.33-26.43-9.98-34.12-6.66-7.69-17.73-11.54-33.22-11.54-13.86,0-24.44,3.71-31.75,11.13-7.31,7.42-10.96,18.11-10.96,32.08s3.76,25.12,11.29,32.49c7.53,7.37,18.99,11.05,34.37,11.05,12.76,0,22.5-2.78,29.21-8.35,6.71-5.56,10.07-12.87,10.07-21.93l-17.19-.16c0,2.07-.54,3.98-1.63,5.73-1.09,1.75-2.6,3.27-4.5,4.58-1.91,1.31-4.2,2.35-6.87,3.11-2.67.76-5.64,1.14-8.92,1.14-4.15,0-7.86-.47-11.13-1.39-3.27-.93-6.03-2.48-8.26-4.67-2.24-2.18-3.93-5.02-5.07-8.51-.7-2.15-1.19-4.6-1.46-7.37h66.02ZM392.27,157.75c.27-1.35.62-2.63,1.05-3.85,1.2-3.43,2.89-6.3,5.07-8.59,2.18-2.29,4.72-4.01,7.61-5.16,2.89-1.14,6.08-1.72,9.58-1.72s6.87.47,9.82,1.39,5.45,2.35,7.52,4.25c2.08,1.91,3.69,4.42,4.83,7.53.67,1.83,1.15,3.87,1.42,6.14h-46.9Z"/>
      <path class="cls-2" d="M551.57,161.19v45.66h-18.66v-44.03c0-3.49-.33-6.63-.98-9.41-.65-2.78-1.77-5.16-3.35-7.12-1.59-1.96-3.79-3.49-6.63-4.58-2.84-1.09-6.44-1.63-10.8-1.63-7.86,0-13.77,2.15-17.76,6.46-3.98,4.31-5.97,10.72-5.97,19.23v41.08h-18.82v-81.83h18.82v11.31c.39-.62.8-1.23,1.22-1.81,2.78-3.82,6.44-6.76,10.97-8.84,4.52-2.07,10.07-3.11,16.61-3.11,6,0,11.21.71,15.63,2.13,4.42,1.42,8.1,3.68,11.05,6.79,2.95,3.11,5.13,7.12,6.55,12.03,1.41,4.91,2.13,10.8,2.13,17.68Z"/>
    </g>
  </g>
</svg>