<svg xmlns="http://www.w3.org/2000/svg" xmlns:xlink="http://www.w3.org/1999/xlink" width="176.704" height="75.835" viewBox="0 0 176.704 75.835">
  <defs>
    <clipPath id="clip-path">
      <rect id="Rectángulo_4" data-name="Rectángulo 4" width="176.704" height="75.835" fill="none"/>
    </clipPath>
  </defs>
  <g id="Grupo_159" data-name="Grupo 159" transform="translate(-53.997 -76.253)">
    <g id="Grupo_4" data-name="Grupo 4" transform="translate(53.997 76.253)">
      <g id="Grupo_3" data-name="Grupo 3" transform="translate(0 0)" clip-path="url(#clip-path)">
        <path id="Trazado_1" data-name="Trazado 1" d="M15.577,75.835a15.116,15.116,0,0,1-7.538-1.857C3.957,71.675-.3,66.639.016,61.028.306,55.8,4.007,52.4,5.787,50.773c4.911-4.506,9.365-5.424,13.674-6.311l.727-.15c.97-3.052,1.73-5.561,2.394-7.761a139.773,139.773,0,0,1,4.751-13.9A146.728,146.728,0,0,1,33.58,8.85c3.569-6.6,6.561-9.305,9.7-8.788,5.611.93,6.321,12.127,6.384,13.4a34.169,34.169,0,0,1-4.846,18.421A35.426,35.426,0,0,1,30.3,45.866a31.691,31.691,0,0,1-6.521,2.369c-.527,1.615-1.107,3.369-1.76,5.289-1.377,4.049-2.817,8.116-4.284,12.085l-4.334-1.6c1.452-3.929,2.879-7.958,4.242-11.97q.469-1.383.892-2.654a18.975,18.975,0,0,0-9.628,4.8c-1.53,1.4-4.092,3.754-4.279,7.1-.19,3.442,2.784,7.036,5.681,8.668C15.4,72.825,22.74,70.263,28,67.611a71.893,71.893,0,0,0,12.4-8.148c13.369-11.02,18.663-26.336,20.748-37.246l4.539.867C63.459,34.742,57.772,51.133,43.338,63.03c-3.017,2.487-16.236,12.8-27.761,12.8M42.523,4.644c-.335.12-2.037,1-5.2,7.016-2.244,4.259-4.326,9.36-5.706,12.737a135.171,135.171,0,0,0-4.606,13.492c-.455,1.5-.952,3.152-1.532,5.019a25.454,25.454,0,0,0,2.767-1.177c10.115-5.036,17.338-17.091,16.8-28.041A26.58,26.58,0,0,0,44.048,7.7a6.593,6.593,0,0,0-1.525-3.052" transform="translate(-0.001 0.001)" fill="#e74e13"/>
        <path id="Trazado_2" data-name="Trazado 2" d="M17.571,16.024V27.841a.875.875,0,0,0,1.512.6c.352-.377.695-.762,1.035-1.15A53.553,53.553,0,0,0,23.6,22.862V16.024Z" transform="translate(26.346 24.027)" fill="#fef7f7"/>
        <path id="Trazado_3" data-name="Trazado 3" d="M43.127,16.024V42.24H37.151V38.614c-.125.2-.257.395-.395.585a8.763,8.763,0,0,1-3.512,2.832,12.912,12.912,0,0,1-5.374.995,16.3,16.3,0,0,1-4.954-.68,8.443,8.443,0,0,1-3.567-2.177,7.861,7.861,0,0,1-1.095-1.44c1.132-.95,2.244-1.957,3.309-3,.315-.307.627-.617.937-.935a.679.679,0,0,1,1.057.1,4.9,4.9,0,0,0,.377.525,5.174,5.174,0,0,0,2.125,1.467,9.512,9.512,0,0,0,3.434.525,7.466,7.466,0,0,0,5.716-2.072q1.938-2.07,1.94-6.159V16.024Z" transform="translate(27.372 24.027)" fill="#fef7f7"/>
        <path id="Trazado_4" data-name="Trazado 4" d="M72.038,28.084V42.71H66.01v-14.1a15.74,15.74,0,0,0-.262-3.014,6.217,6.217,0,0,0-.892-2.279,4.172,4.172,0,0,0-1.755-1.47,6.838,6.838,0,0,0-2.859-.522,7.366,7.366,0,0,0-2.829.5,5.411,5.411,0,0,0-1.992,1.362,6.092,6.092,0,0,0-1.207,1.995,6.913,6.913,0,0,0-.42,2.437v15.1H47.816V27.559a10.61,10.61,0,0,0-.262-2.384,5.214,5.214,0,0,0-.917-1.995,4.431,4.431,0,0,0-1.782-1.362A7.1,7.1,0,0,0,42,21.32a5.682,5.682,0,0,0-4.8,2.07q-1.6,2.073-1.6,6.161V42.71H29.573V16.5H35.6v3.562c.11-.18.222-.352.34-.522a8.64,8.64,0,0,1,3.3-2.829,10.846,10.846,0,0,1,4.849-1,11.386,11.386,0,0,1,4.249.735,7.656,7.656,0,0,1,3.039,2.15,7.925,7.925,0,0,1,.975,1.442c.145-.232.3-.46.467-.682a8.888,8.888,0,0,1,3.224-2.647,10.945,10.945,0,0,1,4.929-1,16.152,16.152,0,0,1,4.979.682,7.71,7.71,0,0,1,3.437,2.174,9.523,9.523,0,0,1,1.992,3.854,21.443,21.443,0,0,1,.655,5.664" transform="translate(44.342 23.555)" fill="#fef7f7"/>
        <path id="Trazado_5" data-name="Trazado 5" d="M75.191,31.385V30.338q0-7.24-3.2-10.932t-10.643-3.7q-6.658,0-10.17,3.564T47.665,29.551q0,6.868,3.617,10.408T62.294,43.5q6.134,0,9.358-2.674A8.682,8.682,0,0,0,74.876,33.8l-5.506-.052a3.4,3.4,0,0,1-.522,1.835A4.974,4.974,0,0,1,67.4,37.047a7.356,7.356,0,0,1-2.2,1,10.353,10.353,0,0,1-2.854.367,13.185,13.185,0,0,1-3.567-.445,6.067,6.067,0,0,1-2.647-1.5,6.594,6.594,0,0,1-1.627-2.724,11.135,11.135,0,0,1-.467-2.359ZM54.2,26.981a8.965,8.965,0,0,1,.335-1.232A7.543,7.543,0,0,1,56.158,23,6.782,6.782,0,0,1,58.6,21.345a8.237,8.237,0,0,1,3.067-.55,10.451,10.451,0,0,1,3.147.445A6.306,6.306,0,0,1,67.22,22.6a6.067,6.067,0,0,1,1.547,2.412,8.637,8.637,0,0,1,.457,1.967Z" transform="translate(71.47 23.555)" fill="#fef7f7"/>
        <path id="Trazado_6" data-name="Trazado 6" d="M86.644,28.084V42.71H80.666v-14.1a13.2,13.2,0,0,0-.315-3.014,5.619,5.619,0,0,0-1.072-2.279,4.919,4.919,0,0,0-2.125-1.47,9.8,9.8,0,0,0-3.459-.522A7.381,7.381,0,0,0,68,23.39q-1.912,2.073-1.912,6.161V42.71H60.063V16.5h6.029v3.622c.125-.2.255-.392.392-.582A8.786,8.786,0,0,1,70,16.706a12.726,12.726,0,0,1,5.321-1,16.416,16.416,0,0,1,5.006.682,8.261,8.261,0,0,1,3.539,2.174,9.187,9.187,0,0,1,2.1,3.854,20.556,20.556,0,0,1,.682,5.664" transform="translate(90.06 23.555)" fill="#fef7f7"/>
      </g>
    </g>
  </g>
</svg>
