<svg xmlns="http://www.w3.org/2000/svg" xmlns:xlink="http://www.w3.org/1999/xlink" width="375.093" height="375.102" viewBox="0 0 375.093 375.102"><defs><clipPath id="a"><rect width="375.093" height="375.102" fill="none"/></clipPath></defs><g clip-path="url(#a)"><path d="M67.637,456.812c-.971-.3-.842-2.236.211-2.748l77.324-.266L159.3,405.983c3.487-9.479,9.374-18.744,18.909-22.956-4.23-.885-12.73.193-15.037-4l-22.426-69.357c-.934-5.063,6.4-3.969,9.78-3.833,6.949.278,14.545,1.124,21.545,1.711,12.183,1.021,24.368,2.827,36.578,3.376L192.6,279.414c-1.586-1.274-3.761-1.578-5.531-2.5-2.539-1.325-15.287-11.732-16.154-13.868-.946-2.332.263-3.986.107-5.594-.108-1.115-1.72-1.521-1.729-4.235-.008-2.489,1.87-4.235,1.726-4.432a2.6,2.6,0,0,1-1.8-1.383c-1.663-3.839,1.485-7.123,4.707-8.553-1.163-2.162-2.481-4.228-3.835-6.274-1.621-2.449-8.195-10.522-8.578-12.492-.082-.425.305-1.213.2-1.326-4.842.105-9.725.436-14.576.44-20.709.019-41.659.074-62.407-.3-1.744-.031-4.441.392-6.106.284-3.3-.214-6.184-2.647-6.146-6.115l.017-65.981A5.836,5.836,0,0,1,76.3,142c35.38-.217,70.913-.725,106.351-.2,6.257.093,12.989-2.085,13.774,6.559l-.218,65.765a7.21,7.21,0,0,1-2.789,3.977c-2.6,1.562-14.028.907-17.543.682-.546-.035-.839-.126-.617.6.793,2.568,5.059,6.6,5.922,9.52,1.124-.044,1.587-1.142,2.776-1.264,3.211-.331,8.195,5.006,10.79,6.931,5.09,3.775,10.89,6.329,13.081,12.713,2.24,6.528,2.038,11.992,5.408,18.694,7.524,14.962,18.949,28.894,28.193,42.844.4-1.685,3.446-3.777,3.765-5.054.246-.986-.746-2.7.483-3.805,9.546-9.893,17.964-20.975,27.458-30.892,8.348-8.719,17.055-13.52,28.972-16.067.409-.556-3.806-8.181-2.539-9.717-5.11.723-10.915,2.335-15.934.5-9.58-3.505-8.095-16.821-8.587-25.028-4.3.541-7.252-2.289-5.593-6.646,1.008-2.649,6.787-8.56,7.2-10.574.34-1.661-2.153-7.05,2.192-5.189-.314-5.635,2.6-10.247,4.251-15.4-11.592-5.118-7.492-24.1,5.921-21.613,2.415.447,4.739,2.5,6.945,2.777,3.13.389,7.35-.764,10.566-.871,12.031-.4,31.239-.948,38.366,10.718.981,1.606,1.77,4.584,2.674,5.783.69.917,1.9,1.114,2.753,1.9,11.54,10.609,7.56,21.584,1.055,33.636a109.725,109.725,0,0,1-12.839,19.314c-.256,1.11,1.87,9.9,2.517,11.287.96,2.062,2.686,2.853,4.592,3.864,11.658,6.184,24.32,8.588,34.884,17.548,11.883,10.078,15.015,25.543,18.027,40.112,9.894.594,15.612,6.759,15.174,16.744-.336,7.648-2.03,17.1-3.009,24.9-1.766,14.062-3.62,28.743-5.927,42.7-2.129,12.887-4.118,22.881-19.31,24.875l-4.737,23.807c3.257.658,6.209,2.348,7.693,5.427a31.53,31.53,0,0,1,1.193,3.458v6.554c2.591.411,7.112-.6,9.428.086,1.605.474,1.283,2.874.509,2.874ZM193.009,209.451V147.082c0-.968-2.422-2.728-3.574-2.346H79.034c-1.033-.3-3.152.967-3.152,1.922v61.312c0,.1-.805.566-.207.636.865.245.584-.557,1.042-1.049,13.645-14.689,27.252-29.418,41.01-44,4.465-2.68,7.011-.409,9.96,2.759l22.4,26.637c5.283-4.324,10.489-14.756,18.191-8.036ZM77.785,215.794H160.45c-1.679-2.876-2.464-6.124-3.73-9.166-.479-1.149-3.808-5.4-.7-5.663,1.074-.091,8.208,5.858,9.508,7,2.717,2.387,5.506,4.785,7.482,7.835,5.433-.578,12.407.77,17.643-.035,1.43-.219,2.449-.975,1.719-2.5-9.346-9.1-18.121-18.882-28.1-27.3-1.8-.583-2.425-.042-3.789.907-2.657,1.847-7.108,8.131-9.449,9.154a2.729,2.729,0,0,1-3.169-.377L124.314,167.15c-3.056-2.882-4.6-1.276-7.006,1.06-7.275,7.066-14.352,15.941-21.335,23.487-6.561,7.09-13.546,13.889-19.863,21.151-.849,1.139.631,2.724,1.675,2.945m226.851-34.248c-6.08,1.1-12.541,2.086-18.591.42l-3.813,10.572,1.394-.769c2.052,1.363,10.176,1.314,11.328,2.633,1.087,1.244-.541,2.641-1.852,2.659a71.072,71.072,0,0,1-9.292-1.663c-1.131-.464-.748-1.365-1.577-1.589.135.74-.26,2.387.055,2.9.648,1.048,21.665,1.759,24.461,3.02-1.92-6.258-4.342-11.483-2.113-18.18M278,211.354c-.3-1.8.217-4.242,0-6.131l-5.592,8.159c-1.058,4.371,3.653.17,5.36,2.437.987,1.311-.023,6.881.7,8.813,1.439,1.167,7.695-.575,8.013.741.886,3.665-5.866,2.951-8.054,2.686.655,11.134,4.344,14.467,15.371,13.045,2.954-.381,6.863-1.824,9.483-1.95,2.193-.1,2.71,1.808,1.177,2.887-.957.673-2.806.162-3.195,1.23a.713.713,0,0,1,.822.319c.933,1.764,4.053,10.768,4.239,12.593.254,2.5-.3,4.37.654,6.957,3.321,9.012,15.148,2.39,20.381-1.161,2.135-1.448,13.581-11.137,13.571-13,0-.255-1.6-1.556-1.978-2.171-2.264-3.719-2.236-11.3-3.548-13.579-.154-.267-3.868-2.936-4.764-3.9-1.145-1.235-4.467-6.753-4.861-7-.861-.543-2.784.856-4.05,1.038-2.091.3-6.612.419-5.711-2.627.717-1.077,3.419-.1,4.877-.321,8.809-1.321,12.961-21.715.225-18.38-3.956,1.036-5.322,7.9-10.45,5.823-2.7-1.094-2.019-4.877-2.9-5.111l-26.383-2.6c-.495.488.388,9.963-.084,11.543-.53,1.776-3.045,1.181-3.3-.335m-113.738,4.861c.329.247,3.074-1.68,2.94-2.3a46.1,46.1,0,0,0-6.324-5.315Zm78.219,93.876c-.673.5,8.256,8.705,1.7,7.823-9.309-13.135-19.2-26.262-27.666-40-2.3-3.729-6.042-9.615-7.639-13.5-2.1-5.107-2.228-10.951-3.9-15.975-1.881-5.653-9.352-9.132-14.037-12.6-1.445-1.071-4.284-4.044-5.558-4.614-2.562-1.146-2.2,2.244-1.011,3.994,1.592,2.345,7.743,6.566,8.438,8.077.4.877-.242,2.623-.179,3.938a24.7,24.7,0,0,0,3.166,9.542c1.319,2.12,6.609,7,6.438,9.02a3.453,3.453,0,0,1-1.208,2.2c-1.231,1.132-6.258,3.725-7.616,2.045-1.3-1.611-2.678-6.132-3.788-8.154L188.038,266c-1.944,2.772-6.262.59-8.981.74,2.9,2.124,5.344,4.925,8.489,6.733,2.46,1.414,4.785,1.769,7.175,3.085,4.8,11.089,12.271,21.944,16.69,33.107a14.84,14.84,0,0,1,.222,1.666c.831.792,9.332-.471,11.409,2.449l10.537,32.9c8.817,4.489,16.98-2.16,23.658-7.255,4.526-3.453,8.768-7.343,13.134-11l-22.6-22.992c-1.818,1.5-2.494,4.963-5.285,4.648m-68.2-67.566c-1.425.324-3.113,2.713-1.734,3.665.795.548,10.163,2.819,11.494,2.926,1.943.156,2.386-3.327.669-4.519-1.4-.97-8.743-2.456-10.43-2.072m12.806,15.127c-.562-1.221-.188-2.854-.5-3.935-.556-1.932-9.953-2.611-11.986-3.514-1.261.383-2.623,3.1-1.844,4.027.474.565,12.6,2.4,14.33,3.422m213.115,74c-1.735-9.9-3.433-19.871-5.63-29.678-2.1-9.363-4.391-19.668-10.1-27.537-9.665-13.33-26.379-17.47-40.69-23.992-6.179,7.943-17.42,18.436-27.644,20.193-9.828,1.689-14.056-5.807-12.776-14.671-9.36,2.267-18.054,5.577-25.113,12.3l-29.847,33.572,26.844,26.844c.781-1.306,3.366-2.277,3.6-3.6.227-1.3-.414-2.5-.442-3.771-.208-9.314-1.1-20-.4-29.189.188-2.458.1-5.738,3.317-3.959l1.872,67.828c7.591,3.293,13.983,6.5,22.52,6.123,3-.133,6.217-1.047,9.283-.865l47.573-5.5c-.789-1.92-1.166-14.664-1.7-15.218-.323-.338-4.113.891-4.117-1.591-1.2-11.7-5.952-25.114-6.447-36.684-.175-4.1,2.178-5.228,3.183-1.067l6.116,35.961Zm-213.957-71.03c-.351-.477-10.99-2.69-11.571-2.577-.619.12-1.432,3.581.256,4.369a97.667,97.667,0,0,0,9.859,1.865c.719-.113,1.575-3.5,1.456-3.657M371.9,410.684c.425.616,12.8.641,14.572.479,9.671-.885,12.865-8.511,14.447-16.843,1.611-8.488,2.662-17.936,3.874-26.57,1.955-13.924,4.974-30.964,5.572-44.746.365-8.421-1.91-12.666-10.428-14.567-.895-.2-.594.353-.544.968.454,5.5,2.775,12.256,3.639,17.93.493,3.238,2.122,7.838-2.839,7.276.948,12.4,2.259,25.427.375,37.793-1.318,8.651-4.661,13.665-13.547,15.629-2.778.614-5.578.591-8.343,1.169-.071,2.8-.679,16.87-2.329,18.178-1.338,1.061-3.916-.195-4.058-.043Zm-91.792-55.353-.848-25.794c-2.222,1.6-4.138,4.164-6.606,1.3-4.753,3.622-9.3,7.913-14.153,11.555-7.3,5.482-14.214,10.607-24.058,8.294l6.716,20.886c.235.321,2.765.761,3.227.293,4.866-5.078,9.765-11.629,16.409-14.493a35.913,35.913,0,0,1,19.312-2.039m117.13-19.876-33.006,4.43,1.295,15.867c1.516-.377,11.053-2.228,8.268,1.721-.45.638-11.716,1.864-13.561,2.082-20.067,2.375-40.3,4.388-60.417,5.88-19.418-6.521-31.288-14.034-48.048,2.782-.461,1.405-6.335,6.384-6.27,7.125.074.836,1.4,2.511,2.349,1.666,5.806-5.037,9.891-12.851,17.353-15.656,1.6-.6,6.979-2.423,7.952-.527,1.177,2.293-5.5,2.993-7.284,3.732-6.084,2.517-9.187,8.488-13.886,12.765-.771,1.66,1.507,2.591,2.989,1.713,1.36-.806,3.751-4.318,5.258-5.74,4-3.776,11.383-8.62,17.151-7.836,1.722.234,2.738,1.882,1.285,3.019-.583.456-5.162.568-6.92,1.111a24.722,24.722,0,0,0-7.709,4.553c-.6.508-4.512,4.349-4.642,4.663-.273.659,1.626,1.344,2,1.4,2.836.444,10.433-8.878,16.2-6.084,4.754,2.3,7.465,5.332,13.4,6.471,5.871,1.126,9.187-.424,14.247-.331,8.32.153,20.423,3.191,29.252,4.191,13.936,1.578,29.078,2.975,43.073,1.739,9.674-.855,17.516-1.62,19.542-12.593a93.411,93.411,0,0,0,.972-19.332c.058-6.279-.549-12.546-.846-18.813m-211.313,7.724c-2.823,2.647.775,12.527,5.806,10.24,3.554-1.615.874-9.96-2.411-10.687-.911-.2-2.708-.2-3.4.447m189.747,46.406c-15.722.962-31.474-.614-47.092-2.6-6.723-.852-13.4-2.177-20.139-2.9l.7,2.133,64.6,18.118.669-1.016Zm-150.53,0c-2.862-.822-5.747.375-8.32,1.613-8.168,3.928-11.873,10.267-14.305,18.676-4.195,14.5-6.8,29.522-11.2,43.974,1.018-.055,2.442.41,2.88-.71l11.195-44.62c2.458-7.894,5.931-11.81,13.259-15.494,2.131-1.071,5.108-1.372,6.494-3.439M358.762,438.63H377.79l4.23-24.1c-1.608.559-10.094-.968-10.623-.178-.448.67-1.04,5.14-1.433,6.52-1.245,4.378-3.019,9.579-5.913,13.115ZM251.33,422.17c-.406-.281-1.906-.055-2.025.662-.145,3.516-.624,7.029-.9,10.53-.172,2.2.354,1.105,2.1,1.889.451-1.7,1.438-12.653.819-13.081m-7.157,31.683h11.839v-6.977c0-2.015,2.716-5.249,4.228-6.55-2.081.312-11.224-3.134-12.291-2.366Zm142.5,0c.282-5.109-.265-11.559-6.553-12.264-6.184-.693-19.459-.516-25.81-.014a44.018,44.018,0,0,0-5.947,1.241c-23.424-.235-48.545,1.884-71.858.483-2.991-.18-9.064-1.919-11.36-1.7-2.212.209-6.17,3.921-6.17,6.124v6.131Z" transform="translate(-38.657 -81.71)" fill="#0f0e0a"/><path d="M263.022,30.91H2.975V193.069c0,4.632,6.487,10.723,11.21,10.777l128.135-.015c1.753-.2,2.9,2.6.825,2.978-43.849-.165-87.816.369-131.636-.288A16.3,16.3,0,0,1,0,192.662V14.193A16.019,16.019,0,0,1,12.258.234C92.293-.25,172.587.193,252.68.025c5.146-.19,13.3,7.691,13.3,12.492V71.291c0,1.116-2.96.539-2.96-.423Zm0-2.96V13.362c0-4.268-7.041-10.827-11.613-10.374l-236.823,0c-4.853-.1-11.61,6.075-11.61,10.8V27.95Z" transform="translate(0 0)" fill="#0f0e0a"/><path d="M159.267,248.444a3.808,3.808,0,0,1-2.2.545H55.55A6.762,6.762,0,0,1,49,242.435l.216-128.784c.806-1.959,1.726-3.457,3.8-4.236,45.866-.947,91.939-.114,137.883-.419,2.694.24,5.566,1.492,6.247,4.323.688,34.665.066,69.462.314,104.177-.093,3.466-3.627,2.921-3.428-.427l-.167-103.006c-1.072-3.3-8.008-1.634-10.618-1.657-31.789-.274-63.539-.156-95.3-.153-9.781,0-20.5-.763-30.285-.29-1.862.09-4.661.164-5.169,2.426l-.11,128.05c-.168,3.915,4.174,3.239,7.023,3.314,32.6.856,65.455-.906,98.086-.074,1.4.044,3.061,1.534,1.781,2.767" transform="translate(-28.279 -62.879)" fill="#0f0e0a"/><path d="M84.183,356.1h79.071c1.29,0,1.289,3.383,0,3.383H84.183c-1.066,0-1.555-2.866,0-3.383" transform="translate(-48.015 -205.528)" fill="#0f0e0a"/><path d="M148.837,391.1c.873.269.99,2.647-.06,2.9l-64.986.077c-.789-.186-.962-2.977-.071-2.977Z" transform="translate(-47.974 -225.729)" fill="#0f0e0a"/><path d="M441.244,135.1h51.586c.865,0,.865,2.96,0,2.96H441.244c-.984,0-1.513-2.444,0-2.96" transform="translate(-254.122 -77.976)" fill="#0f0e0a"/><path d="M441.4,173.444c-.975-.305-1.262-2.443.07-2.893.878-.3,8.8-.5,10.5-.519,3.194-.03,6.9.446,10.149.46,6.317.027,12.651-.3,18.954-.283,2.436.479,1.574,3.235.92,3.235Z" transform="translate(-254.278 -98.135)" fill="#0f0e0a"/><path d="M441.35,206.1h27.485c1.228,0,1.228,2.96,0,2.96H441.35c-1.1,0-1.214-2.407,0-2.96" transform="translate(-254.228 -118.954)" fill="#0f0e0a"/><path d="M291.9,168.147c15.851-2.292,17.955,20.974,3.65,22.675-16.2,1.926-17.314-20.7-3.65-22.675m7.568,17.5c7.263-6.51-1.924-19.065-10.634-12.536-8.817,6.609,1.961,20.31,10.634,12.536" transform="translate(-163.024 -96.956)" fill="#0f0e0a"/><path d="M661.888,295.123c1.159-.352,3.939-.111,3.466,1.737-.222.865-4.038,2.535-4.618,3.887-5.086.956-.819-5.025,1.152-5.623" transform="translate(-379.964 -170.254)" fill="#0f0e0a"/><path d="M583.978,284.066c3.044-.983,2.227,5.036,1.15,5.4-3.445,1.17-2.581-4.939-1.15-5.4" transform="translate(-336.325 -163.889)" fill="#0f0e0a"/><path d="M77.347,29.156c4.164-.869,5.344,5.063,2.253,6.082-5.382,1.774-6.3-5.238-2.253-6.082" transform="translate(-43.195 -16.778)" fill="#0f0e0a"/><path d="M42.924,29.238c3.916-.51,5.069,5.239,1.913,6.175-5.145,1.526-6.617-5.563-1.913-6.175" transform="translate(-23.132 -16.857)" fill="#0f0e0a"/><path d="M111.411,29.154c5.319-1.092,5.477,8.136-.76,6.08-2.674-.881-2.029-5.507.76-6.08" transform="translate(-62.881 -16.774)" fill="#0f0e0a"/></g></svg>