<svg xmlns="http://www.w3.org/2000/svg" xmlns:xlink="http://www.w3.org/1999/xlink" width="370.21" height="408.716" viewBox="0 0 370.21 408.716"><defs><clipPath id="a"><rect width="370.21" height="408.716" fill="none"/></clipPath></defs><g clip-path="url(#a)"><path d="M287.26,12.9c-.877,5.489-5.617-1.064-7.679-2.586-15.49-11.432-26.962-5.5-42.827-.891a37.572,37.572,0,0,1-16.791,1.117c-1.043,7.32-.888,15.143,6.809,18.684,2.1.967,4.8,1.741,7.013.859.3-.4-5.253-4.295-3.6-6.7,2.1-3.052,6.16,3.29,7.931,4.526,3.932,2.746,7.41,2.394,11.813,1.371,1.3-.3,2.417-1.7,3.707-.668,1.944,1.562-.488,2.726-.715,3.28-2.223,5.414-.47,11.281,2.274,16.18.708,1.264,4.016,5.911,5.1,6.362.8.333.644-.314.813-.6,3.215-5.52,5.413-9.624,12.913-8.35,8.106,1.377,9.345,11.236,6.922,17.677-1.6,4.246-4.412,4.609-1.049,9.4.943,1.342,4.834,4.776,6.434,3.65.358-.252,2.537-6.551,3.418-8.062,2.273-3.9,5.991-7.408,8.111-11.464,7.2-13.788,7.569-31.592-8.585-38.619.266-1.41-.515-3.288-.576-4.2-.021-.316.015-.638,0-.955.718-.067.718-1.365,0-1.432.207-1.57.749-3.836,2.879-3.154,2.588.828,2.306,5.941,2.9,6.45.61.526,4.535-.832,5.455,1,1.283,2.55-2.3,2.792-2.156,3.106a26.192,26.192,0,0,1,8.478,13.963c1.375,6.7-.975,15.74-3.475,22.08-4.362,11.065-14.906,17.494-12.514,30.673.31,1.71,2.377,8.471,3.254,9.638.294.391,7.18,4,8.512,4.857,7.938,5.121,16.961,11.282,22.678,18.86,7.258,9.62,11.654,22.125,14.147,33.836,7.091.709,16-1.53,22.522,1.591,5.456,2.611,8.305,7.688,8.841,13.6-4.579,43.3-10.674,86.42-16.813,129.507-2.252,7.165-8.883,9.953-16,9.066l3.423,18.065c1.794.46,4.044.3,5.764.677,26.454,5.813,28.519,41.008,3.23,49.553l6.2,30.06h10.743c1.456,0,1.456,3.82,0,3.82H1.023c-1.1,0-1.609-3.82,0-3.82H19.406v-6.923a25.918,25.918,0,0,1,2.388-4.774c5.1-6.833,21.178-8.841,28.652-12.886.88-.614.085-2.189.749-2.685,1.689-1.263,3.431.606,4.19.462.369-.07,4.926-3.733,6.078-4.427,1.748-1.056,8.015-4.005,8.765-5.082.465-.669,3.392-7.735,3.133-8.082-2.243-.842-5.759-.689-5.167-3.938C79.008,326,88.019,294.73,99.132,264.276c2.92-8,5.633-16.253,13.852-20.289-.216-.708-2.47-.9-3.106-.943-4.419-.321-12.384.989-14.82-3.324l-27.69-80.213a4.578,4.578,0,0,1,4.3-6.254c16.039.939,33.334-1.169,49.222,0,2.763.2,4.944.531,6.632,2.918,6.756,18.286,12.947,36.9,19.033,55.454.221.673.266,2.2.339,2.288.767.939.825-.37.993-.683,1.456-2.727.107-3.684-.032-6.249-.417-7.683,2.294-15.334,9.895-18.26,1.231-.474,4.6-1.06,5.143-1.541s3.321-6.441,4.147-7.789c1.762-2.874,7.506-12.32,10.689-12.737,3.439-.45,4.357,3.013,3.906,5.84-.394,2.467-8.614,14.548-8.005,15.153,8.662.662,14.255,8.057,20.536,13.126a3.839,3.839,0,0,0,2.121.261c8.576-.244,19.379-2.419,28.2-3.351,1.6-.169,9.093-.328,9.557-.947l3.095-13.375c-2.7-.673-5.532.139-5.218-3.523.436-5.078,4.25-14.586,5.655-20.154,4.356-17.263,6.29-36.24,19.956-49.134l-4.169-11.7c-6.105,3.021-14.037,5.11-20.523,2.146-8.222-3.757-10.047-16.617-10.986-24.584-7.941.055-9.654-2.676-7.159-10.03a6.105,6.105,0,0,0,1.432-2.387c.043-.153-.048-.343,0-.477,1.2-1.03,3.911-5.293,3.342-6.685,1.677.209,1.182-.051,1.432-.955.753-.32,1.266-.892.477-1.432a12.561,12.561,0,0,0,0-1.432c-.064-4.058-.776-8.153-.477-12.414.022-.315-.03-.642,0-.955.247-2.59,1.317-5.737,1.928-8.314-7.826-4.836-9.129-15.919-5.27-23.675.159-.319.322-.635.477-.955l2.387-.477a11.19,11.19,0,0,0,1.432,0c.23.62.909.46,1.432.477a11.644,11.644,0,0,0,1.432,0c1.911.7,5.849.469,7.8,0,.5-.122-.153-.825,1.277-.95.1-.009-.022.227.955,0,.284-.066.69.074.955,0,3.318-.92,6.739-2.848,10.258-3.828C260.622-2.171,278.044-.246,287.26,12.9M248.586,33.915c-1.949-.113-3.973.173-5.916-.056-1.252-.147-4.261-1.453-4.783-1.408-.265.023-.447,1.083-1.414,1.515-2.569,1.148-7.858.313-10.322-1.01a57.592,57.592,0,0,0-1.431,16.466c.1,1.869,1.2,4.983.948,6.652-.288,1.909-9.976,14.1-8.118,16.031,1.582.351,6.847.572,7.692,1.622,2.417,3-2.54,10.951,6.749,6.839,1.456-.644,3.92-4.4,5.4-2.281,2.7,3.866-7.278,8.032-10.293,7.2,1.94,5.887,3.57,12.143,10.749,12.882a22.048,22.048,0,0,0,13.065-2.68c1.619-.844,6.213-4.775,6.608-4.886,3.976-1.115,2.457,5.23-.752,5.742l6.4,19.475c1.44,2.569,8.62-.593,10.732-1.641a39.537,39.537,0,0,0,7.378-5.036c1.832-1.568,9.509-9.7,9.339-11.653-.042-.481-2.326-5.068-2.743-6.377-.625-1.961-1.853-10.058-2.142-10.511-.189-.3-5.089-1.994-6.35-2.961-1.426-1.093-4.432-6.106-4.815-6.191-.418-.093-6.82,3.585-7.773.124-.82-2.978,2.522-2.241,3.882-2.635,6.589-1.909,11.135-15.628,4.031-19.091-9.028-4.4-8.95,9.035-13.827,8.606-3.768-.331-8.611-7.662-10.141-10.9-1.926-4.075-3.553-9.446-2.156-13.835m89.76,233.47a205.3,205.3,0,0,0,4.319-44.66c-.4-27.414-3.666-74.317-18.442-97.58-7.386-11.628-18.683-18.578-30.27-25.343a48.613,48.613,0,0,1-17.188,17.434c-5.781,3.256-16.694,7.819-18.389-2.155-5.778,6.022-8.935,13.71-11.35,21.6l-10.858,42.858c2.745-.427,7.051,2.237,9.406,2.3a1.466,1.466,0,0,0,1.337-.866c.818-1.765.112-12.135.222-15.056.208-5.549.369-11.594,1.024-17.133.273-2.31,1.6-2.151,3.563-1.26l-.271,64.967,12.6-1.406,7.471-22.674c.014-.51-3.747-.563-3.6-3.188,3.659-13.149,5.687-27.083,9.453-40.159.5-1.747,2.972-11.989,6.1-9.72.981,3.2-1.471,7.225-2.382,10.577-3.45,12.686-5.71,25.7-9.112,38.394C286.444,187.276,300.123,193,314,197.682l9.791-35.812c1.332-3.138,4.44-.8,3.473,2.029L316.411,201.16c-1.715,2.112-5.694-.594-7.66-1.1-6.086,15-10.4,32.826-23.4,43.445,18.387,6.278,35.639,15.291,52.995,23.876m1.435-110.768a336.487,336.487,0,0,1,6.207,65.89H358.64a5.555,5.555,0,0,0,1.135-1.253c2.893-17.488,4.451-35.311,6.74-52.936-.989-7.459-4.988-11.2-12.41-11.7l-.239-.468-.238.468c-3.574-.185-7.873-.153-11.459,0a1.544,1.544,0,0,0-2.387,0m-262.125.477c-2.223.024-4.464-.017-6.687,0,.05.623-.077,1.294,0,1.912.047.363.469.444.477.477.073.277-.081.7,0,.955a.9.9,0,0,0,.477.477c5.958,17.689,12.328,35.164,17.666,53,1.108,3.7,2.227,7.568,3.527,11.216.258.724-.125,1.237,1.248,1.2.077.266-.077.688,0,.955a78.961,78.961,0,0,0,2.3,8.1c.317.772.361,2.1,1.519,1.928a10.466,10.466,0,0,0,.477.955c.066.131-.168.567.1.834.747.736,4.284,1.514,5.149.12.793.03,1.6-.043,2.387,0,.043.267-.082.9,0,.954a48.789,48.789,0,0,0,5.532.02,2.511,2.511,0,0,0,1.156-.5c.793-.029,1.592.021,2.387,0-.517,1.612,3.609,1.165,4.774.477,1.418.092,2.875-.06,4.3,0-.233,1.934.988.518,1.432.477.784-.072,1.6.048,2.387,0,.513,1.263,1.358,1.329,1.91,0,.634.014,1.278-.04,1.91,0-.26,1.984,1.465.623,2.387.477.573-.091,1.291.041,1.91,0l3.088.966.254-.966c.477.012.955-.013,1.432,0-.4,1.362,2,1.166,2.724,1.211,1.284.08,3.147.482,3.96-.733.318.007.639-.017.955,0-.39,1.782,2.582.679,3.821.952-.02-.311.037-.644,0-.952-.031-.243-.352-1.055-.477-1.432-.081-.243-.45-.4-.477-.477-9.06-26.6-17.624-53.4-26.711-80a9.021,9.021,0,0,0-1.459-2.123c.047-.812.172-1.117-.711-.951l-.244.473c-1.61-.3-4.378.042-6.207,0l-.244-.475-.711.475c-1.746-.029-3.506.018-5.252,0a17.44,17.44,0,0,0-9.072,0c-.477,0-.955,0-1.432,0a6.014,6.014,0,0,0-5.252,0H92.934c-.067-.718-1.365-.718-1.432,0-.477,0-.955,0-1.432,0-.067-.718-1.366-.718-1.433,0-.477,0-.955,0-1.432,0a4.128,4.128,0,0,0-4.3,0c-.318,0-.637,0-.955,0a4.128,4.128,0,0,0-4.3,0m99.794,13.849-.248,1.42c.729-.487,1.187-1.505.248-1.42m-.485,1.91c-1.207-.013-1.917,1.581-2.571,2.437-1.732,2.269-3.081,4.856-4.789,7.148l-8.869,15.715,2.787-.075Zm70.123,13.433-6.616-1.977c-.388,2.845-1.961,14.063-3.776,15.564a2.32,2.32,0,0,1-1.276.634c-13.953,1.663-27.964,3.424-41.971,4.323-7.217-4.576-12.558-13.379-22-13.2l-3.55,6.046c2.1.453,7.229-1.293,7.206,1.676-.012,1.53-.8,1.993-2.17,2.17-3.113.4-17.316-.619-16.871,4.437.352,4,9.366.787,12.088.873,4.366.14,5.861,6.234,7.117,6.45.628.108,2.794-.739,3.859-.792,10.933-.552,20.745,3.31,31.081,6.184,12.457-1.82,24.882-4.131,37.429-5.235Zm58.318,12.354-30.075-9.56c-2.724,7.1-4.415,15.214-7.15,22.224-.459,1.177-.834,2.679-2.118,3.135l-55.435,8.107c-18.282-5.355-38.8-12.94-51.081,7.129l-5.493,5.477c3.6,2.755,4.508-2.126,6.435-4.534,3.124-3.905,9.422-8.061,14.1-9.777,1.819-.668,5.806-2.282,6.819-.108,1.361,2.92-4.424,3.328-6.194,4.075-5.3,2.236-10.552,6.108-13.522,11.063,1.068-.231,4.661.337,5.253,0,.044-.025-.32-.627-.2-.99,1.374-4.331,12.929-8.82,17.157-8.6,1.937.1,3.027,2.013,1.452,3.41-1.024.908-6.258,1.335-8.374,2.127a16.763,16.763,0,0,0-6.212,4.048c5.007.753,8.073-2.7,13.147-2.4,3.957.234,7.294,2.717,10.991,3.81,8.622,2.548,15.324.617,23.866.962,15.069.607,30.213,3.165,45.319,3.381,8.314.119,18.294.759,24.142-5.976,8.073-9.3,11.909-25.874,17.179-37.008m-145.627-6.687c-5.363,1.541-7.956,7.166-8.112,12.407ZM155,210.576c-2.185-1.084-3.185,2.075-3.337,3.814Zm13.294.552c-.553-.349-6.6.27-7.76.442-.485.072-1.786.195-1.709.9,1.462.224,1.228,1.707,2.7,2.8,3.14,2.338,5.515,1.571,8.758.066a21.94,21.94,0,0,0-1.985-4.211m-15.675,19.5a34.635,34.635,0,0,0,9.018-10.751c-1.919-1.4-4.478-2.563-5.212-5l-6.694,6.485Zm206.735-4.3H346.465c-1.007,4.612-.2,9.418-.458,14.1a163.171,163.171,0,0,1-2.558,20.36c-.378,2-1.813,10.414-3.3,11.059-2.636,1.14-5.492-2.3-8-3.03-.872,6.824-3.738,13.447-8.853,18.129l-6.431,4.311h33.9Zm-165.2,16.234c1.347-.011,2.715.057,4.065,0,.582-.025,1.774.36,1.662-.473a19.8,19.8,0,0,1-4.777-.716c-9.654-2.425-21.632-2.1-31.769-1.7-2.565.1-5.177.872-7.855.505-.253.189,1.339,2.144,1.432,2.382.043.108-.836.875-.238.957,11.924-.3,23.913.4,35.83,0,.92-.031,1.916.487,1.649-.955M223.28,245.9H145.216c-.646,0-5.336,3.135-6.193,3.834-13.881,11.324-6.322,28.689-2.4,42.956,6.481,23.574,14.357,46.772,20.713,70.387.677,1.006,12.029-.488,14.079-.738,7.924-.967,15.909-2.481,23.724-4.05-.226-3.123-.625-6.271-1.123-9.357-1.867-11.578-4.9-23.058-7.228-34.541-2.185-10.8-1.588-19.357-8.193-28.819a136.661,136.661,0,0,0-9.995-11.992c-.7-2.351.55-3.843,2.91-2.406,5,5.82,10.582,11.18,14.149,18.073,22.877,2.836,45.953,1.953,68.913,1.993,5.426.01,10.857.021,16.2,0,10.742-.048,25.056,1.167,35.3-.029,11.683-1.363,22.035-12.276,22.572-24.092-5.144-2.962-10.757-5.842-16.23-8.408-10.38-4.867-21.4-8.4-31.359-14.042-19.235,1.883-38.578-.667-57.77-2.1.35.643.463,3.031,0,3.339M212.3,295.085l-25.782-1.91,11.942,59.675,10.248-51.1a19.744,19.744,0,0,1,3.592-6.669m64.457,0c-5.35.037-13.177-.684-18.143,0l-.244-.473c-.883-.166-.758.139-.711.951a9.563,9.563,0,0,0-6.5,6.155c-.454,1.512.192.948,1.249,1.007l-.715.957c29.258-.868,59.169,1.152,88.35,0,.92-.036,1.916.491,1.649-.955.477,0,.955.006,1.432,0a2.2,2.2,0,0,0,2.048,0c.528-.121.286-.907.34-.954,1.446-1.278,5.977-5.027,3.82-7.162-.368-.364-.52-.583-1.144-.5-23.225.628-46.57-.75-69.78.026-.92.031-1.916-.486-1.649.955m-63.5,7.639c.023.161-.84.875-.238.957l33.662-.006c.077-.049-.508-.906-.48-.951s.68.176.937-.347c.372-.757.405-1.889.888-2.842.8-1.576,1.8-2.894,2.471-4.45H220.655c-1.992,0-7.376,4.007-7.82,6.106-.21.993.382,1.27.42,1.533M104.393,404.9h15.756c-.98-9.532,7.588-13.715,15.152-16.6,2.992-1.141,14.695-3.829,16.057-4.841.5-.37.292-1.418.747-1.737.759-.532,2.547.033,3.835-.474.489-.193,8.134-6.141,8.134-6.667v-7.4c-2.082-.628-8.464,1.2-9.581-.329l-20.016-66.037-24.737,71c-1.326,3.094-3.949.369-6.3.142.384,2.048-1.938,5.179-1.787,6.85.047.525.646,1.268.785,2.031a102.748,102.748,0,0,1,1.954,24.065M301.584,306.54a4.38,4.38,0,0,0-.477.955c-.288,1.041-1.413,3.167.477,2.865-.025.315.024.64,0,.955-.044.588-1.537,2.162.477,1.91-.028.314.022.64,0,.955-.006.089-.444.379-.454.782-.024.918-.245,5.166,1.409,4.947.007.318-.01.637,0,.955a2.092,2.092,0,0,0-.511,1.174c0,.63.072,4.954,1.466,4.555.011.318-.01.637,0,.955a2.152,2.152,0,0,0-.519,1.173,42.183,42.183,0,0,0,.522,4.56c.062.088.747-.053.953,0,0,.314.029.645,0,.955-.075.785-1.563,2.669.477,2.387-.028.314.032.642,0,.955-.082.8-1.557,2.666.477,2.387-.03.474.036.96,0,1.432-.045.593-1.535,2.162.477,1.91-.029.314.031.642,0,.955-.078.794-1.56,2.668.477,2.387.037.311-.033.643,0,.955l-.946.229c.8.989-.1,2.533,1.424,2.158,0,.314.028.644,0,.955-.071.776-1.566,2.672.477,2.388-.028.314.032.642,0,.955-.082.8-1.557,2.666.477,2.387.054.463-.058.971,0,1.432,0,.023-.012.254,0,.477.017.316-.021.639,0,.955.02.3.476.444.477.477.016.317-.01.638,0,.955a2.127,2.127,0,0,0-.5,1.642,3.987,3.987,0,0,0,.98,2.655c.027.314-.036.644,0,.955.045.385.473.444.477.477.041.309-.043.647,0,.955a2.831,2.831,0,0,0,0,.955c.02.157-.021.321,0,.477.022.173.463.383.477.477.069.45-.06.976,0,1.432-.831.807-.91,2.852.477,2.388a21.965,21.965,0,0,1,0,2.387c0,.053-.666.451-.475.952.274.053.9-.073.953,0,.144.191-.093,1.818,0,2.387.062.377.474.444.477.477.029.311-.043.65,0,.955a3.265,3.265,0,0,0,0,1.432c.024.155-.022.321,0,.477.024.175.464.385.477.477.065.453-.073.986,0,1.432-1.112.573-1.45,1.127,0,.955.014.158-.009.319,0,.477.017.3.477.444.477.477,0,.317.012.639,0,.955-.026.66-1.6,2.7.477,2.387.053.3-.049.655,0,.955-.736.412-.166,5.492,0,5.733.061.088.747-.053.953,0,.043.3-.041.648,0,.955-1.5-.265-1.419,1.247,0,.955.039.31-.038.645,0,.955.048.391.474.444.477.477.035.311-.036.644,0,.955-.831.807-.91,2.852.477,2.387.007.316.012.639,0,.955,0,.049-.832.483-.425.884.221.218.826,0,.9.071.061.06-.135.644.091.841,1.372,1.2,31.988-.684,36.386.123.554.055.2-.648.287-.964.072-.252-.048-.651,0-.955.086-.549,1.428-1.645-.477-1.432.024-.313-.041-.65,0-.955.068-.506,1.442-1.652-.477-1.432.017-.315,0-.638,0-.955a17.155,17.155,0,0,0-.412-4.625c-.185-.875.43-1.863-1.02-1.582a6.7,6.7,0,0,1,0-.955c.067-.5,1.443-1.652-.477-1.432.024-.312-.042-.65,0-.955.068-.505,1.442-1.652-.477-1.432.024-.312-.042-.65,0-.955.068-.505,1.442-1.652-.477-1.432.024-.313-.049-.664,0-.955.009-.053.79-.623.475-.952-.1-.108-.826.107-.952,0a4.256,4.256,0,0,1,0-.955,1.574,1.574,0,0,0,.457-1.1c-.04-.958-.344-3.247-1.412-2.717a8.6,8.6,0,0,1,0-.955c.054-.614,1.53-2.156-.477-1.91-.012-.158.009-.319,0-.477-.019-.316.027-.638,0-.954-1.125.123-2.744-.616-2.391.954-1.243,0-2.6.1-3.82,0,.276-1.527-.763-.79-1.639-.964-2.2-.433-4.248-1.26-6.477-1.424-21.19-9.53-19.923-38.432,1.432-46.791l.277.365c1.69-.59,2.952.386,3.065-1.32.031-.469-.057-.973,0-1.432.087-.694,1.5-2.143-.477-1.91.022-.314,0-.639,0-.955,0-.057.413-.3.411-.693,0-.949-.282-3.174-1.366-2.649-.013-.471-.029-.964,0-1.432.023-.383,1.471-1.676-.477-1.432.024-.313-.041-.65,0-.955.068-.506,1.442-1.652-.477-1.433.022-.314-.034-.643,0-.955.072-.658,1.517-2.148-.477-1.91.029-.314-.022-.639,0-.955.007-.1.607-.474.523-1.125-.073-.567-.928-.229-1-.307-.036-.039-.312-.659-.477-.955-.076-.135.168-.708-.054-.884-1.222-.967-27.152.648-31.16-.092-.586.1-.2.78-.3.976m-55.385,0H211.822L198.175,374.1c.579,2.646,2.578,4.664,3.709,7.076a46.575,46.575,0,0,1,3.731,23.723h28.17Zm16.233,0H250.018L237.6,404.9h10.027ZM251.451,404.9h60.16L296.6,306.51l-30.346.027Zm112.2-55.383c-.7-15.98-17.821-25.426-31.991-18.139,4.556,6.033,9.536,11.987,12.456,19.062ZM329.216,334.3c-1.877-1.092-5.874,5.832-6.555,7.4-4.527,10.435-.645,21.428,8.766,27.377l9.8-16.424c-3.124-6.673-7.616-12.51-12.006-18.356m34.436,19.036c-6.208-.244-12.356.271-18.543.552-.759,2.549-10,14.954-9.613,16.352.187.667,3.334,1.575,4.087,1.673a21.742,21.742,0,0,0,24.07-18.578m-286.946,8.59c.354,1.834-2.988,7.26-2.794,8.288.22,1.169,7.372,7.177,8.879,7.825,2.658,1.143,13.531,2.039,15.143-.37.45-.672,2.177-6.991,1.717-7.384Zm120.313,0c-3.477-.656-1.117,1.987-1.426,4.294,1.438-.705.849-2.994,1.426-4.294m-28.589,12.356c6.485,1.846,11.04,7.007,18.276,6.208,1.512-.167,8-2.03,8.3-3.582.381-1.966-3.8-11.186-3.724-14.035L167.418,366.7ZM24.18,396.78h76.394l-1.916-14.8c-7.095,1.716-14.917,2.009-20.963-2.663-1.4-1.081-5.351-5.844-6.462-5.9-.927-.05-7.426,3.107-7.415,3.557,1.62,1.014,7.214,5.456,3.8,7.185-2.894,1.469-5.812-7.178-9.54-3.595-.509.716,6.013,6.42,1.57,7.578-2.151.561-4.306-5.181-5.532-5.126-7.174,3.468-15.438,5.2-22.623,8.438-2.833,1.278-5.592,2.617-7.318,5.335m173.8-14.8c-.218-.143-.275-.985-1.1-.888-1.381.162-4.852,2.181-6.924,2.655a18.377,18.377,0,0,1-11.55-.579c-2.349-.858-10.055-5.642-11.674-5.489-.834.079-3.9,2.483-3.609,2.863,2.281.207,7.9,4.094,4.16,5.874-2.134,1.016-5.1-3.808-8.18-2.974-.222.06-.969.638-.522.926,1.376.881,3.639,4.569,1.554,5.421-3.184,1.3-3.818-3.45-5.751-3.42-7.613,3.4-21.843,5.056-27.833,10.91-.78.762-.18.879-.193.935-.065.277-.826.887-.237.957l74.012,0,.709-.955c.313.019.665-.049.955,0,.053.009.291.7.952.476.04-1.132.323-1.642-.952-1.43,0-.787-.058-1.606,0-2.387.044-.594,1.535-2.163-.477-1.91.025-.474-.039-.961,0-1.433,0-.053.781-.637.475-.951-.106-.108-.827.107-.953,0a4.221,4.221,0,0,1,0-.955c.009-.052.79-.624.475-.952-.1-.108-.807.108-.952,0a20.178,20.178,0,0,1-.955-3.342c0-.229,1.4-1.149-.477-.955a3.746,3.746,0,0,1-.477-1.432c0-.053.783-.637.472-.937-.165-.159-.8.077-.95-.018M22.748,402.032c-.309.755-1.125,1.6,0,2.387l77.834.2-.006-4.025-77.383.228c-.469.293-.313.882-.445,1.206m135.121,0c-11.293.013-22.609-.008-33.9,0V404.9c1.269.022,2.553-.034,3.822,0,.045.442-.256.833.3.964.96.226,5.23.39,4.474-.964.954.006,1.91,0,2.865,0a.784.784,0,1,0,1.432,0c3.176.01,6.373-.008,9.549,0-.265,1.5,1.248,1.419.955,0,1.588,0,3.187,0,4.775,0-.437,1.541,2.43,1.42,1.91,0,4.449.006,8.92,0,13.369,0-.8,1.442,3.642,1.09,3.823.954.078-.058-.046-.687,0-.954H197.02c-.424,1.764,3.217.761,4.72.884.207-.275-.013-.68.054-.884a3.164,3.164,0,0,0-.276-2.894c-13.911.064-27.834.015-41.74.029-.2-.744-1.755-.714-1.91,0" transform="translate(0 0)" fill="#0f0e0a"/><path d="M604.021,25.431a8.878,8.878,0,0,1,0-1.432c.718.067.718,1.365,0,1.432" transform="translate(-315.328 -12.529)" fill="#0f0e0a"/><path d="M366.4,510.873c.465-.308.351-2.7,0-3.339,19.192,1.437,38.536,3.987,57.77,2.1,9.954,5.64,20.978,9.176,31.359,14.042,5.473,2.566,11.086,5.446,16.23,8.408-.537,11.815-10.889,22.729-22.572,24.092-10.243,1.2-24.556-.019-35.3.029-5.339.024-10.769.013-16.2,0-22.961-.04-46.036.843-68.913-1.993-3.567-6.893-9.152-12.253-14.149-18.073-2.36-1.437-3.609.054-2.91,2.406a136.665,136.665,0,0,1,9.994,11.992c6.6,9.462,6.008,18.018,8.193,28.819,2.323,11.483,5.36,22.962,7.228,34.541.5,3.086.9,6.235,1.123,9.357-7.816,1.569-15.8,3.083-23.724,4.05-2.05.25-13.4,1.744-14.079.738-6.355-23.616-14.232-46.813-20.713-70.388-3.922-14.267-11.48-31.632,2.4-42.956.857-.7,5.547-3.834,6.193-3.834Z" transform="translate(-143.118 -264.971)" fill="#0f0e0a"/><path d="M599.921,633.393l.239.468.238-.468c5.4-.013,10.83.009,16.234,0,.266,1.446-.729.919-1.649.955-29.182,1.155-59.093-.866-88.35,0l.715-.957c24.183-.04,48.391.054,72.574,0" transform="translate(-274.942 -330.673)" fill="#0f0e0a"/><path d="M266.271,833.109l.239.468.239-.468H277.73c.067.718,1.365.718,1.432,0h4.774l.238.468.239-.468h16.711l.238.468.239-.468h.955l.238.468.239-.468h.955l.239.468.239-.468c3.973,0,7.964,0,11.937,0l.238.468.239-.468c3.5,0,7.009,0,10.5,0l.239.468.238-.468c3.418,0,7.136-.209,10.5,0l-.709.955-74.012,0c-.59-.07.172-.68.237-.957Z" transform="translate(-137.527 -434.897)" fill="#0f0e0a"/><path d="M651.6,615.631c-1.776.089-3.465.4-5.252.477-.236.01-.926-.014-1.432,0-2.219.062-4.464-.021-6.685,0-.154,0-.316,0-.477,0-19.576.148-39.147-.136-58.727,0-.266-1.441.729-.924,1.65-.955,23.21-.777,46.555.6,69.78-.026.624-.079.777.14,1.144.5" transform="translate(-302.274 -321.029)" fill="#0f0e0a"/><path d="M352.549,361.674,339.108,386.9l-2.788.075,8.869-15.716c1.708-2.292,3.057-4.879,4.789-7.147.654-.856,1.364-2.451,2.571-2.437" transform="translate(-175.584 -188.821)" fill="#0f0e0a"/><path d="M365.076,507.507c.267,1.441-.729.924-1.649.955-11.918.4-23.906-.3-35.83,0-.6-.082.28-.849.238-.957,12.405-.07,24.837.095,37.242,0" transform="translate(-170.921 -264.947)" fill="#0f0e0a"/><path d="M658.891,846.152h36.764c-.09.316.268,1.019-.287.963-4.4-.807-35.014,1.073-36.386-.123-.226-.2-.03-.781-.091-.841-.076-.074-.681.148-.9-.071-.407-.4.423-.835.425-.884Z" transform="translate(-343.46 -441.256)" fill="#0f0e0a"/><path d="M449.057,633.4l.239.468.239-.468H478.66c-.028.046.557.9.48.951l-33.662.006c-.6-.083.26-.8.238-.957Z" transform="translate(-232.461 -330.684)" fill="#0f0e0a"/><path d="M630.989,640.082c.1-.2-.289-.873.3-.976,4.009.74,29.939-.876,31.161.092.222.176-.022.749.054.884Z" transform="translate(-329.405 -333.543)" fill="#0f0e0a"/><path d="M187.461,447.53c1.289-.278.918.655,1.185,1.417,1.273,3.628,2.515,7.309,3.59,11-1.373.038-.99-.475-1.248-1.2-1.3-3.648-2.419-7.513-3.527-11.216" transform="translate(-97.869 -233.618)" fill="#0f0e0a"/><path d="M201.271,485.584c-1.158.169-1.2-1.156-1.519-1.928a78.881,78.881,0,0,1-2.3-8.1c2.114,2.7,2.6,6.826,3.82,10.027" transform="translate(-103.084 -248.276)" fill="#0f0e0a"/><path d="M694.965,781.259c2.229.164,4.282.992,6.477,1.424.876.173,1.915-.564,1.639.963-3.658-.3-4.926-.953-8.117-2.387" transform="translate(-362.824 -407.875)" fill="#0f0e0a"/><path d="M229.078,500.947a2.506,2.506,0,0,1-1.156.5,48.792,48.792,0,0,1-5.532-.02c-.078-.058.046-.687,0-.954,2.206.121,4.658-.433,6.684.477" transform="translate(-116.09 -261.253)" fill="#0f0e0a"/><path d="M301.992,505.007c-.813,1.215-2.676.813-3.961.734-.723-.045-3.119.151-2.724-1.211,2.178.06,4.5.428,6.684.477" transform="translate(-154.15 -263.402)" fill="#0f0e0a"/><path d="M632.46,663.11c-1.655.218-1.433-4.03-1.409-4.948.011-.4.448-.692.454-.782a17.6,17.6,0,0,1,.955,5.729" transform="translate(-329.444 -343.202)" fill="#0f0e0a"/><path d="M731.929,822.166c1.451-.281.836.707,1.02,1.582a17.141,17.141,0,0,1,.412,4.625,16.209,16.209,0,0,1-1.432-6.207" transform="translate(-382.122 -429.206)" fill="#0f0e0a"/><path d="M211.66,499.49c-.865,1.394-4.4.617-5.149-.12-.271-.267-.036-.7-.1-.834Z" transform="translate(-107.744 -260.272)" fill="#0f0e0a"/><path d="M634.421,677.1c-1.4.4-1.468-3.926-1.466-4.555a2.086,2.086,0,0,1,.511-1.174,17.7,17.7,0,0,1,.955,5.729" transform="translate(-330.45 -350.504)" fill="#0f0e0a"/><path d="M636.41,691.082c-.205-.05-.891.092-.952,0a42.055,42.055,0,0,1-.522-4.559,2.145,2.145,0,0,1,.52-1.173,17.41,17.41,0,0,1,.955,5.729" transform="translate(-331.484 -357.805)" fill="#0f0e0a"/><path d="M655.558,822.953c-.206-.05-.891.092-.953,0-.168-.241-.739-5.321,0-5.733.308,1.906.683,3.809.955,5.729" transform="translate(-341.56 -426.652)" fill="#0f0e0a"/><path d="M416.978,847.2c-.067.2.153.608-.055.884-1.5-.123-5.144.88-4.72-.884Z" transform="translate(-215.183 -442.299)" fill="#0f0e0a"/><path d="M272.112,847.193c.757,1.354-3.514,1.19-4.473.964-.557-.131-.256-.522-.3-.964,1.585.04,3.188-.011,4.774,0" transform="translate(-139.549 -442.297)" fill="#0f0e0a"/><path d="M246.134,502.005c-1.166.688-5.292,1.135-4.774-.477a39.822,39.822,0,0,1,4.774.477" transform="translate(-125.984 -261.833)" fill="#0f0e0a"/><path d="M220.51,328.045c-3.018-.03-6.054.013-9.072,0a17.429,17.429,0,0,1,9.072,0" transform="translate(-110.386 -170.95)" fill="#0f0e0a"/><path d="M315.121,505.516c.039.308-.019.641,0,.952-1.239-.273-4.211.83-3.821-.952,1.265.068,2.553-.047,3.82,0" transform="translate(-162.504 -263.911)" fill="#0f0e0a"/><path d="M354.017,847.2c-.042.267.082.9,0,.954-.182.136-4.621.488-3.823-.954Z" transform="translate(-182.779 -442.299)" fill="#0f0e0a"/><path d="M645.939,759.582a3.986,3.986,0,0,1-.979-2.655,2.125,2.125,0,0,1,.5-1.642,28.532,28.532,0,0,1,.817,3.68c.035.355-.343.582-.34.617" transform="translate(-336.715 -394.315)" fill="#0f0e0a"/><path d="M725.935,793.162c1.069-.531,1.373,1.759,1.413,2.717a1.575,1.575,0,0,1-.458,1.1,8.573,8.573,0,0,1-.955-3.82" transform="translate(-378.992 -414.049)" fill="#0f0e0a"/><path d="M288.707,504.478l-.254.966-3.088-.966a30.9,30.9,0,0,1,3.342,0" transform="translate(-148.982 -263.351)" fill="#0f0e0a"/><path d="M701.3,681.281c-.113,1.705-1.375.73-3.065,1.319l-.277-.365c1.029-.4,1.917-1.275,3.342-.955" transform="translate(-364.388 -355.644)" fill="#0f0e0a"/><path d="M701.958,665.286c1.084-.525,1.362,1.7,1.366,2.649,0,.394-.411.637-.411.693a6.009,6.009,0,0,1-.955-3.342" transform="translate(-366.474 -347.288)" fill="#0f0e0a"/><path d="M629.856,646.259c-1.892.3-.767-1.823-.477-2.865.74.476.545,2.014.477,2.865" transform="translate(-328.271 -335.9)" fill="#0f0e0a"/><path d="M202.7,328.042c-1.747-.007-3.505,0-5.252,0a6.015,6.015,0,0,1,5.252,0" transform="translate(-103.084 -170.947)" fill="#0f0e0a"/><path d="M638.849,708.72c-2.034.279-.56-1.585-.477-2.387.716.376.525,1.644.477,2.387" transform="translate(-332.968 -368.758)" fill="#0f0e0a"/><path d="M637.85,701.726c-2.04.282-.552-1.6-.477-2.387.7.365.542,1.659.477,2.387" transform="translate(-332.447 -365.107)" fill="#0f0e0a"/><path d="M278.732,503.963c-.922.146-2.647,1.506-2.387-.477.763.048,1.978-.311,2.387.477" transform="translate(-144.259 -262.836)" fill="#0f0e0a"/><path d="M642.845,736.692c-2.043.284-.548-1.612-.477-2.387.7.365.542,1.659.477,2.387" transform="translate(-335.054 -383.362)" fill="#0f0e0a"/><path d="M270.292,503.493c-.552,1.329-1.4,1.263-1.91,0a14.278,14.278,0,0,1,1.91,0" transform="translate(-140.115 -262.843)" fill="#0f0e0a"/><path d="M719.887,785.138c-.353-1.569,1.266-.83,2.391-.954.024.316-.022.638,0,.954Z" transform="translate(-375.809 -409.367)" fill="#0f0e0a"/><path d="M640.983,727.312a12.236,12.236,0,0,1,.477,2.387c-1.526.375-.625-1.169-1.424-2.158Z" transform="translate(-334.147 -379.711)" fill="#0f0e0a"/><path d="M640.847,722.706c-2.037.281-.556-1.594-.478-2.387.818.413.389,1.644.478,2.387" transform="translate(-334.011 -376.06)" fill="#0f0e0a"/><path d="M720.33,631.406c-.054.047.188.833-.34.954a2.2,2.2,0,0,1-2.047,0Z" transform="translate(-374.82 -329.641)" fill="#0f0e0a"/><path d="M166.782,328.042c-1.429.007-2.868-.015-4.3,0a4.128,4.128,0,0,1,4.3,0" transform="translate(-84.829 -170.947)" fill="#0f0e0a"/><path d="M177.771,328.042c-1.43.006-2.868-.006-4.3,0a4.128,4.128,0,0,1,4.3,0" transform="translate(-90.566 -170.947)" fill="#0f0e0a"/><path d="M648.832,778.651c-1.388.465-1.309-1.58-.477-2.387a22.671,22.671,0,0,1,.477,2.387" transform="translate(-338.176 -405.268)" fill="#0f0e0a"/><path d="M657.823,840.591c-1.388.465-1.309-1.58-.477-2.387a21.8,21.8,0,0,1,.477,2.387" transform="translate(-342.87 -437.605)" fill="#0f0e0a"/><path d="M639.871,716.235c-2.013.252-.522-1.317-.477-1.91.663.3.532,1.309.477,1.91" transform="translate(-333.512 -372.931)" fill="#0f0e0a"/><path d="M698.908,648.361c1.995-.239.55,1.252.477,1.91-.662-.3-.533-1.309-.477-1.91" transform="translate(-364.857 -338.479)" fill="#0f0e0a"/><path d="M421.185,822.189c2.012-.252.522,1.317.477,1.91-.681-.315-.51-1.294-.477-1.91" transform="translate(-219.868 -429.23)" fill="#0f0e0a"/><path d="M630.878,653.3c-2.014.251-.522-1.321-.477-1.91.663.3.532,1.309.477,1.91" transform="translate(-328.816 -340.072)" fill="#0f0e0a"/><path d="M703.907,674.337c1.982-.233.564,1.216.477,1.91-.672-.31-.52-1.3-.477-1.91" transform="translate(-367.468 -352.041)" fill="#0f0e0a"/><path d="M724.908,787.224c2.008-.247.532,1.3.477,1.91-.741-.338-.43-1.289-.477-1.91" transform="translate(-378.443 -410.976)" fill="#0f0e0a"/><path d="M320.193,847.195c.52,1.42-2.347,1.541-1.91,0h1.91" transform="translate(-166.144 -442.299)" fill="#0f0e0a"/><path d="M643.844,743.685c-2.035.279-.56-1.585-.477-2.387a13.6,13.6,0,0,0,.477,2.387" transform="translate(-335.576 -387.013)" fill="#0f0e0a"/><path d="M653.833,812.618c-2.074.308-.5-1.727-.477-2.387a12.351,12.351,0,0,0,.477,2.387" transform="translate(-340.79 -423.001)" fill="#0f0e0a"/><path d="M284.754,847.195a.784.784,0,1,1-1.432,0c.477,0,.955,0,1.432,0" transform="translate(-147.893 -442.299)" fill="#0f0e0a"/><path d="M735.9,842.171c1.906-.212.564.884.478,1.432-.576-.218-.517-.922-.478-1.432" transform="translate(-384.182 -439.662)" fill="#0f0e0a"/><path d="M734.9,837.175c1.919-.219.546.927.477,1.432-.585-.223-.506-.916-.477-1.432" transform="translate(-383.664 -437.053)" fill="#0f0e0a"/><path d="M655.808,831.176a2.607,2.607,0,0,1,0,.955c-1.419.292-1.5-1.22,0-.955" transform="translate(-341.81 -433.919)" fill="#0f0e0a"/><path d="M422.231,831.159c1.275-.212.992.3.952,1.43-.661.225-.9-.467-.952-.475Z" transform="translate(-220.436 -433.902)" fill="#0f0e0a"/><path d="M730.9,817.194c1.92-.22.545.93.478,1.432-.576-.218-.517-.922-.478-1.432" transform="translate(-381.574 -426.622)" fill="#0f0e0a"/><path d="M261.79,503c-.444.041-1.666,1.457-1.433-.477.524.022,1.2-.146,1.433.477" transform="translate(-135.91 -262.353)" fill="#0f0e0a"/><path d="M697.962,643.361c.073.078.928-.26,1,.307.084.651-.516,1.028-.523,1.125Z" transform="translate(-364.388 -335.867)" fill="#0f0e0a"/><path d="M700.933,659.345c1.948-.243.5,1.049.477,1.432-.576-.218-.517-.922-.477-1.432" transform="translate(-365.927 -344.211)" fill="#0f0e0a"/><path d="M728.906,807.2c1.919-.219.546.927.477,1.432-.577-.218-.517-.922-.477-1.432" transform="translate(-380.531 -421.406)" fill="#0f0e0a"/><path d="M699.936,654.353c1.919-.219.546.927.477,1.432-.58-.22-.513-.92-.477-1.432" transform="translate(-365.407 -341.607)" fill="#0f0e0a"/><path d="M729.905,812.2c1.919-.219.546.927.477,1.432-.576-.218-.517-.922-.477-1.432" transform="translate(-381.053 -424.014)" fill="#0f0e0a"/><path d="M713.337,327.085c-.792.034-1.6-.024-2.388,0a1.545,1.545,0,0,1,2.388,0" transform="translate(-371.168 -170.468)" fill="#0f0e0a"/><path d="M651.929,797.677a3.265,3.265,0,0,1,0-1.432l.433,1.15Z" transform="translate(-340.318 -415.699)" fill="#0f0e0a"/><path d="M416.237,804.208c1.876-.195.476.726.477.955-.432-.209-.352-.634-.477-.955" transform="translate(-217.307 -419.842)" fill="#0f0e0a"/><path d="M419.234,813.2c.145.111.848-.1.952,0,.316.328-.466.9-.475.952Z" transform="translate(-218.871 -424.535)" fill="#0f0e0a"/><path d="M649.93,787.209c-.057-.076-.678.049-.952,0-.192-.5.471-.9.475-.952Z" transform="translate(-338.797 -410.483)" fill="#0f0e0a"/><path d="M420.233,817.193c.126.11.847-.1.952,0,.307.314-.47.9-.475.952Z" transform="translate(-219.393 -426.621)" fill="#0f0e0a"/><path d="M727.933,803.208c.126.11.848-.1.952,0,.316.328-.466.9-.475.952Z" transform="translate(-380.035 -419.32)" fill="#0f0e0a"/><path d="M414.239,799.2c.146.1.785-.141.95.018.311.3-.471.884-.472.937Z" transform="translate(-216.264 -417.222)" fill="#0f0e0a"/><path d="M332.231,840.6h-1.91c.154-.714,1.712-.744,1.91,0" transform="translate(-172.452 -438.572)" fill="#0f0e0a"/><path d="M256.393,328.137l.244-.473c.883-.167.758.138.711.95-.043-.031-.9-.468-.955-.477" transform="translate(-133.856 -171.042)" fill="#0f0e0a"/><path d="M647.97,770.226a2.827,2.827,0,0,1,0-.955l.475.244Z" transform="translate(-338.269 -401.617)" fill="#0f0e0a"/><path d="M307.266,847.195c.293,1.419-1.22,1.5-.955,0h.955" transform="translate(-159.901 -442.299)" fill="#0f0e0a"/><path d="M540.035,616.855a8.2,8.2,0,0,1-.955.477c-.047-.812-.172-1.117.711-.95Z" transform="translate(-281.422 -321.774)" fill="#0f0e0a"/><path d="M186.9,328.112c-.477,0-.955,0-1.432,0,.067-.718,1.365-.718,1.432,0" transform="translate(-96.826 -171.018)" fill="#0f0e0a"/><path d="M192.889,328.112c-.477,0-.955,0-1.432,0,.067-.718,1.365-.718,1.432,0" transform="translate(-99.955 -171.018)" fill="#0f0e0a"/><path d="M651.952,805.192c-1.45.172-1.112-.382,0-.955.048.3-.027.644,0,.955" transform="translate(-339.864 -419.872)" fill="#0f0e0a"/><path d="M242.363,328.182c-.318-.007-.637.005-.955,0l.711-.475Z" transform="translate(-126.033 -171.087)" fill="#0f0e0a"/><path d="M371.02,357.673c.939-.085.48.934-.249,1.42Z" transform="translate(-193.57 -186.729)" fill="#0f0e0a"/><path d="M653.483,807.711c0-.034-.46-.174-.477-.477Z" transform="translate(-340.918 -421.436)" fill="#0f0e0a"/><path d="M740.4,327.191c-.158-.011-.319.008-.477,0l.238-.468Z" transform="translate(-386.294 -170.574)" fill="#0f0e0a"/><path d="M148.976,333.174c-.009-.032-.431-.114-.477-.477Z" transform="translate(-77.528 -173.693)" fill="#0f0e0a"/><path d="M317.811,502.009l-.477-.477c.028.082.4.235.477.477" transform="translate(-165.672 -261.837)" fill="#0f0e0a"/><path d="M149.975,336.171a.9.9,0,0,1-.477-.477Z" transform="translate(-78.049 -175.257)" fill="#0f0e0a"/><path d="M645.009,749.767c-.012-.223,0-.454,0-.477Z" transform="translate(-336.74 -391.185)" fill="#0f0e0a"/><path d="M645.491,752.766c0-.034-.457-.181-.477-.477Z" transform="translate(-336.745 -392.75)" fill="#0f0e0a"/><path d="M647.49,766.751c0-.033-.432-.092-.477-.477Z" transform="translate(-337.789 -400.052)" fill="#0f0e0a"/><path d="M657.479,835.684c0-.033-.43-.086-.477-.477Z" transform="translate(-343.004 -436.04)" fill="#0f0e0a"/><path d="M648.489,772.745c-.014-.094-.455-.3-.477-.477Z" transform="translate(-338.31 -403.181)" fill="#0f0e0a"/><path d="M651.485,793.725c0-.034-.416-.1-.477-.477Z" transform="translate(-339.875 -414.135)" fill="#0f0e0a"/><path d="M652.484,800.719c-.013-.093-.453-.3-.477-.477Z" transform="translate(-340.396 -417.786)" fill="#0f0e0a"/><path d="M214.273,395.728c9.247-1.782,14.951,19.657,4.231,18.489-8.633-.941-12.3-16.934-4.231-18.489m.425,4.249c-2.753.973.082,7.972,2.318,9.5,6.125,4.184,2.443-11.181-2.318-9.5" transform="translate(-109.524 -206.545)" fill="#0f0e0a"/><path d="M478.953,95.981c2.459-.458,9.494-.259,7.526,3.7-1.043,2.1-3.315.064-4.783-.037-1.284-.088-2.355.558-3.359.538-2.976-.06-2.8-3.57.616-4.206" transform="translate(-248.633 -50.018)" fill="#0f0e0a"/><path d="M483.007,116.9c4.434-1.34,4.008,6.229,1.308,6.617-3.338.479-4.1-5.774-1.308-6.617" transform="translate(-251.274 -60.946)" fill="#0f0e0a"/><path d="M294.789,833.209c-.067.718-1.365.718-1.432,0Z" transform="translate(-153.154 -434.997)" fill="#0f0e0a"/><path d="M269.381,833.208h.477l-.238.468Z" transform="translate(-140.637 -434.997)" fill="#0f0e0a"/><path d="M306.345,833.208h.477l-.238.468Z" transform="translate(-159.935 -434.997)" fill="#0f0e0a"/><path d="M342.309,833.208h.477l-.238.468Z" transform="translate(-178.711 -434.997)" fill="#0f0e0a"/><path d="M374.278,833.208h.477l-.238.468Z" transform="translate(-195.401 -434.997)" fill="#0f0e0a"/><path d="M397.256,833.209h.477l-.238.468Z" transform="translate(-207.397 -434.997)" fill="#0f0e0a"/><path d="M348.3,833.209h.477l-.238.468Z" transform="translate(-181.84 -434.997)" fill="#0f0e0a"/><path d="M345.306,833.209h.477l-.238.468Z" transform="translate(-180.275 -434.997)" fill="#0f0e0a"/><path d="M718.376,617.414h-1.432c.506-.014,1.2.01,1.432,0" transform="translate(-374.298 -322.334)" fill="#0f0e0a"/><path d="M702.435,617.419h-.477c.161,0,.324,0,.477,0" transform="translate(-366.474 -322.338)" fill="#0f0e0a"/><path d="M679.98,633.4h.477l-.238.468Z" transform="translate(-355 -330.684)" fill="#0f0e0a"/><path d="M453.2,633.4h.477l-.238.468Z" transform="translate(-236.605 -330.684)" fill="#0f0e0a"/></g></svg>