<svg xmlns="http://www.w3.org/2000/svg" xmlns:xlink="http://www.w3.org/1999/xlink" width="365.375" height="398.999" viewBox="0 0 365.375 398.999"><defs><clipPath id="a"><rect width="365.375" height="398.999" fill="none"/></clipPath></defs><g transform="translate(0 0.001)"><g transform="translate(0 -0.001)" clip-path="url(#a)"><path d="M264.036,96.667c22.3-8.489,48.439-8.464,60.787,15.13,6.438,12.3,5.2,20.647,6.5,33.572,1.435,14.293,19.88,18.392,20.017,34.777.037,4.418-1.842,8.927-1.32,13.316.661,5.551,5.692,7.336,8.841,11.193,8.6,10.534,5.374,25.539-4.884,33.6,10.316,2.421,12.307,9.157,11.071,18.868-2.18,17.13-5.787,38.25-9.432,55.13-1.665,7.711-5.2,12.042-13.663,11.939l-6.263,38.467c6.511,1.777,10.583,7.556,7.48,14.179-1.051,2.243-4.777,5.241-7.227,5.241H278.73v13.8h67.9c1.422,0,.946,3.117,0,3.117H39.848c-.916,0-1.557-2.548-.369-3.135l47.349-.2c13.061-22.558,24.406-46.205,37.927-68.49,5.3-8.744,11.323-19.961,22.175-22.13,0-.751-1.481-.847-2-.889-8.5-.682-18.353-.049-26.7-1.356a5.5,5.5,0,0,1-3.3-2.493L93.589,230.349c-.268-3.063,1.182-4.315,4.12-4.58,17.665-1.6,37.352,1.823,55.252.452a5.139,5.139,0,0,1,5.006,3.454l14.409,46.815a44.116,44.116,0,0,1,18.493,3.992c3.175,1.387,5.981,3.584,9.28,4.56l22.034-5.823a12.759,12.759,0,0,0-2.22-2.451c-3.7-3.38-8.863-8.538-12.706-11.338-3.135-2.284-7.13-3.353-10.019-5.565-4.763-3.646-5.979-9.185-9.557-13.151-2.788-3.089-9.774-5.606-10.44-10.042-.185-1.235.231-2.88-.019-3.89-.072-.288-2.831-2.193-3.373-4.738-.408-1.916.313-3.753.143-4.652-.113-.6-2.117-2.034-2.465-3.713-.5-2.394.281-4.121.6-6.37-2.643-8.63-6.625-16.933-9.168-25.58-1.727-5.871-1.856-8.977,5.718-7.5l25.505,13.262c.634.492-.021,2.4-.473,2.724-1.1.791-3.423-1.837-3.143-.033,2.026,3.683,2.9,10.259,5.153,13.553.86,1.258,5.329,3.746,6.881,5.141,9.707,8.734,8.133,25.376,16.506,32.472.78.661,7.13,5.157,7.537,4.963.778-1.261,3.214-4.169,3.554-5.376.1-.355-2.749.116-.964-4.526,3.135-8.148,9.749-20.356,14.093-28.206,6.14-11.094,13.506-19.605,25.63-24.334l-1.8-13.06c-5,.586-8.792,1.974-13.9.769-11.225-2.647-12.052-15.048-10.647-24.555-.213-.867-6.8-1.747-7.052-5.4-.253-3.7,8.485-10.287,9.58-13.981.594-2,.012-4.763.211-6.914a36.313,36.313,0,0,1,2.728-10.185c.715-1.658,4.185-6.671,4.305-7.289.146-.75-.393-1.42-.375-2.138.085-3.427,5.849-7.2,8.474-8.892V33.44l-201.257.445V61.492c3.795-.339,7.634.5,8.353,4.782-.641,12.582,1.218,26.688.125,39.094-.358,4.055-2.45,5.784-6.471,6.019-.569.033-1.222-.467-1.347-.455-.95.09-.2,1.63-.186,2.4.241,11.441,1.088,27.768-.029,38.765-.423,4.163-3.561,3.029-3.561,2.228V111.361l-50.109.017A5.551,5.551,0,0,1,.443,106.24c1.038-12.55-1.391-27.349,0-39.627.25-2.21,2.431-5.121,4.675-5.121H56.1V14.071C56.1,8.078,64.814,1.081,70.576.5,82.022-.665,96.951.6,108.841.476,154.864,0,201.516-.043,247.8.026c6.829-.552,16.232,7.8,16.232,14.491Zm-3.562-66.344v-16.7c0-3.511-7.008-10.126-10.908-10.02L72.781,3.592C66.537,3.413,59.216,10.032,59.216,16.3V30.323ZM63.224,65.054H5.117c-1.484,0,.37,1.729.662,2.01L34.06,91.34Zm.891,39.628V70.174c0-.182,1.146-.779-.217-.664L45.422,86.2ZM3.559,69.951v35.176L23.15,85.989ZM61.888,107.8,42.9,88.683c-2.556.895-6.4,6.694-8.848,6.694-2.127,0-6.582-5.79-8.9-6.734L6.231,107.8Zm225.744,48.09c-2.085.856-7.378-1.968-4.453-3.8.743-.467,4.471,1.066,6.8.581,6.64-1.379,10.041-19.371-2.909-17.155-3.8.651-3.981,4.247-5.428,4.322-2.3.119-10.4-5.459-12.476-7.113a56.718,56.718,0,0,1-11.285-12.314c-1.618-2.392-2.733-5.027-4.529-7.264-2.2,4.255-4.463,9.179-4.9,14.031-.211,2.356.362,5.074-.217,7.352-.744,2.929-9.281,11.563-9.1,12.62.309,1.82,5.839,2.032,6.434,2.934.981,1.486-.789,6.072-.238,8.034,1.631.526,7.219-2.461,7.957-1.279,1.875,3-6.024,4.7-7.961,4.4.788,10.566,5.745,14.365,16.2,13.3,5.624-.572,6.861-4.254,8.6,2.642,1.163,4.62,2.853,13.055,2.317,17.623-.279,2.383-3.921,8.561.586,8.2,4.048-.323,10.676-4.116,13.925-6.6,1-.763,7.664-6.834,7.786-7.369s-4.082-3.543-4.893-4.412c-5.185-5.556-6.558-11.5-5.654-19.032.419-3.488,2.023-6.573,3.436-9.7M244,249.836V243.38c0-1.952,1.846-7.329,2.551-9.471.714-2.17,2.8-8.268,3.931-9.872,1.241-1.763,3.814-1.355,3.225,1.429-.78,3.694-4.031,9.171-5.128,13.588-2.208,8.89-.264,17.6,1.217,26.468,7.53,4.419,15.435,8.215,23.341,11.908l6.713-16.01c.457-1.309,0-2.727.41-4.042,3.037-9.717,7.3-19.092,9.716-29.022,2.6-3.014,3.27-.542,2.885,2.444-.921,7.162-6.441,18.2-8.658,25.623a9.982,9.982,0,0,0-.571,2.763c5.222.307,11.02,2.777,15.879,4.822,5.235,2.2,11.21,4.9,15.507,8.528.455-.267.506-.671.7-1.076,2.988-6.364,4.366-16.947,7.646-23.076,1.571-2.936,3.62-1.707,3.143,1.358l-9.09,26.535c-1.336,2.066-4.492.455-6.055,1.742-.917.755-5.4,9.491-6.62,11.408a137.674,137.674,0,0,1-8.643,12.285c9.589,1.252,19.229,2.773,28.941,2.446-.256-2.723-.609-5.5-.642-8.237-.308-24.9,15.893-73.177-2.9-92.635-6.082-6.3-15.8-8.727-23.41-12.66-1,.021-6.019,5.775-7.329,6.9-8.6,7.377-29.2,17.124-21.382-4.235-10.1,4.114-16.461,10.982-21.889,20.183-3.889,6.591-7.7,14.552-10.993,21.511-1.443,3.051-2.6,6.551-4.513,9.29,4.073,1.719,7.646,4.523,12.02,5.563m32.528,29.358c.268.37,3.193.279,1.988,2.7-.951,1.909-5.472-.693-7.069-1.4-10.61-4.683-22.506-11.057-32.644-16.78-6.4-3.614-23.139-12.762-26.185-18.786-7.036-13.918-3.38-22.609-18.794-32.412-1.143-.727-6.7-3.937-7.566-4.018a1.637,1.637,0,0,0-1.48,1.479c.01,3.038,12.03,9.834,13.129,12.72.456,1.2-.209,3.173-1.412,3.476-2.2.553-17.222-8.35-20.608-9.089-2.25-.533-.869,1.961-.2,2.886,2.281,3.17,16.167,8.556,16.638,10.108.306,1.012-.785,2.035-1.863,1.878-2.524-.369-8.333-4.167-11.169-5.35-.647-.27-1.9-1.074-2.519-.6a8.81,8.81,0,0,0,3.152,4.417c1.655,1.331,9.687,5.109,9.985,5.6a2.548,2.548,0,0,1,.022,2.263c-1.057,1.508-8.315-2.187-9.381-3.589-.372,4.036,4.541,5.438,7.117,7.577,5.49,4.56,6.9,12.391,13.009,15.933,3.512,2.038,6.174,2.712,9.7,5.442,18.439,14.292,36.289,35.817,57.951,45.8,3.278,1.51,8.276,3.371,11.868,2.625,7.514-1.561,18.733-19.627,22.771-26.207,2.484-4.047,4.572-8.431,7.377-12.208-.027-1.49-23.77-12.1-27.33-11.384-.375,2.145-7.011,16.189-6.479,16.922m48.953,28.088c-.114.143,1.028,2.709,1.206,3.463.6,2.52.826,6.562,1.542,8.7.12.358.259.6.654.682,8.174-.607,20.99,4.529,23.182-6.975C353.795,294,360.8,273,362.01,254.083c.393-6.129-1.24-10.146-7.286-12.339-5.4-1.96-6.553.1-11.342,1.281a34.284,34.284,0,0,1-9.437,1.027l-6.234,45.194c-.9,4.74,1.267,11.652.432,16.016-.355,1.853-2.466,1.771-2.664,2.021M244.347,253.5c-4.152-.856-7.671-3.277-11.471-4.993l-3.148,5.987,16.051,9.148c.364-.42-.948-9.663-1.431-10.141m-112,9.35c-1.994,2.136.224,8.564,3.337,9.187,4.241.85,2.652-8.923-2.061-9.505a1.572,1.572,0,0,0-1.276.318M243.554,296.6c-6.42-4.241-12.144-9.72-18.133-14.63-1.156-.333-3.809.63-5.117.945-5.753,1.383-12.764,4.47-18.136,5.459-4.683.862-9.417-3.564-13.834-5.355a34.424,34.424,0,0,0-15.131-2.9c.789.805,1.149,3.846,1.756,4.258.245.167,4.476-.338,5.921-.141,1.591.217,8.173,2.534,9.1,3.578a1.821,1.821,0,0,1-1.338,2.915c-.74-.066-2.827-1.553-3.875-1.924-2.874-1.019-5.88-2.245-8.9-1.114a14.06,14.06,0,0,0,1,3.454c.311.265,5.294,1.246,6.743,1.936,1.636.78,3.739,3.1,4.612,3.4,2.974,1.024,12.182,1.5,15.926,1.884,10.075,1.025,20.235,1.351,30.279,2.717,1.2.279,9.684-3.705,9.125-4.487m-7.569,12.9,22.055,3.955c1.714-.173,3.146-1.8.854-2.594-1.934-.671-8.695-.961-9.576-1.553-1.3-.874.995-5.812.4-7.518a11.611,11.611,0,0,0-3.348-2.452c-.583-.05-2.658,1.672-3.544,2.1-.833.4-5.213,2.038-5.426,2.367-.539.83-.159,4.545-1.42,5.7M138.43,395.838c5.731-18.9,10.271-38.548,16.4-57.291a71.193,71.193,0,0,1,5.1-12.705c1.221-2.212,2.9-2.63,1.688-5.654-5.419,4.476-7.37,11.888-9.464,18.359-6.1,18.843-10.666,38.389-16.355,57.333Zm178.592-32.905h15.584l6.234-39.181c-2-.077-4.027.09-6.03.016-1.078-.04-4.188-1.273-4.229.2-.038,1.359.46,2.588.483,3.986.21,12.271-2.958,26.306-12.043,34.974M196.8,355.808v-6.456a30.637,30.637,0,0,0-1.323-4.493c-.54-.72-2.213-.31-2.27.08-.006,1.4.7,2.66.874,4.015.3,2.285-.428,7.646,2.718,6.855m-14.694,40.073h77.475v-13.8H201.922a33.68,33.68,0,0,1-3.764-1.579c-6.853-4.369-4.793-16.24,3.436-17.451l5-.557-13.342-3.567Zm20.366-29.726c-6.85,1.153-6.918,11.152-.118,12.372H335.51c7.284-.876,7.69-11.641-2.221-12.494-4.549-.391-16.652-.6-20.915.044-1.8.273-4.445,1.94-6.389,2.517-17.7,5.255-48.438,2.364-67.044.064-5.095-.63-10.682-2.218-15.654-2.6-4.705-.362-16.456-.634-20.813.1" transform="translate(0 0.001)" fill="#0f0e0a"/><path d="M258.663,111.177l118.8-.124a5.8,5.8,0,0,1,5.553,5.132c-1.255,17.605,1.636,37.457.007,54.794-.387,4.118-2.85,6.094-6.9,6.457H261.659c-3.643.07-6.759-1.815-7.337-5.575,1.258-17.6-1.641-37.462-.007-54.795.264-2.8,1.522-5.042,4.349-5.892m2.118,3.255c-1.469.077-2.925.452-2.908,2.188l.242,55.9a3.6,3.6,0,0,0,3.1,1.356l114.47,0c1.219-.078,2.864-.237,3.444-1.453.691-18.783.232-37.749.234-56.58l-.8-.982c-10.505-.379-20.945-.536-31.391-.568-15.12-.047-30.3.307-45.391.36-13.3.046-27.849-.9-41-.217" transform="translate(-140.793 -61.605)" fill="#0f0e0a"/><path d="M409.448,317.612c-.191.308-1.854.486-2.369.524-21.014,1.523-43.84-1.2-65.047,0-3.387.1-3.915-3.32,0-3.6,21.444-1.543,44.328,1.744,65.939.444,1.436-.366,2.027,1.748,1.476,2.635" transform="translate(-188.218 -174.25)" fill="#0f0e0a"/><path d="M335.99,287.22H267.642c-.911,0-.911-3.117,0-3.117h67.679c1,0,1.265,2.289.668,3.117" transform="translate(-148.093 -157.603)" fill="#0f0e0a"/><path d="M427.248,397.1H482.46c1.516,0,2.8,3.026-.475,3.532-9.025,1.4-21.331-1-30.715.053-7.859-.334-15.66-.456-23.579-.466-1.639-.5-2.01-2.145-.444-3.119" transform="translate(-236.457 -220.289)" fill="#0f0e0a"/><path d="M203.85,30.286c4.708-.462,5,6.971.34,6.967-4.364,0-4.717-6.537-.34-6.967" transform="translate(-111.357 -16.789)" fill="#0f0e0a"/><path d="M165.94,36.261c-3.545-3.536,2.649-8.619,5.25-4.582,2.345,3.639-2.5,7.322-5.25,4.582" transform="translate(-91.461 -16.748)" fill="#0f0e0a"/><path d="M561.218,280.121c1.864-.566,5.121.55,6.828,1.448,1.348.709,3.317,1.521,2.436,3.356-.968,2.016-3.756-.616-5.135-1.1s-3.493-.45-4.435-.906a1.476,1.476,0,0,1,.306-2.8" transform="translate(-310.671 -155.309)" fill="#0f0e0a"/><path d="M567.435,299.889c.879.951.617,5.111.1,6.24-.418.919-2.516.75-2.688.041a33.667,33.667,0,0,1,.092-5.641,1.636,1.636,0,0,1,2.493-.641" transform="translate(-313.302 -166.163)" fill="#0f0e0a"/><path d="M376.235,149.245c1.153-1.329,12.83-.895,15.132-.434,17.544,3.508,17.233,28.934.076,31.887-4.4.757-9.316-.216-13.74.48l-1.171-.614Zm6.126,26.159c7.251.271,14.5-.266,15.158-9.109.821-11.058-5.964-12.18-15.158-12.263Z" transform="translate(-208.713 -82.299)" fill="#0f0e0a"/><path d="M467.729,149.548c2.051,2.194,3.882,7.451-.553,7.856-4.351.4-2.262-3.539-6.171-4.911-5.705-2-10.849,4.167-4.716,6.939,5.621,2.54,14.4,1.93,14.539,10.741.166,10.48-13.071,12.994-20.457,8.089-3.134-2.081-7.242-9.184-.965-9.189,4.267,0,3.063,5.093,8.448,5.711,4.307.495,8.936-3.248,5.26-6.266-4.215-3.46-14.692-1.437-16.048-10.1-1.824-11.656,14.691-15.257,20.663-8.868" transform="translate(-247.484 -81.223)" fill="#0f0e0a"/><path d="M327.722,180.9a11.074,11.074,0,0,1-3.657.977c-3.388-.218-3.258-5.755-4.523-8.026l-12.792.008c-.716.171-1.676,5.683-2.632,6.585-1.488,1.4-7.228,1.581-5.931-1.685,3.481-8.443,5.409-18.382,8.946-26.688.369-.867,1.143-2.51,2-2.9,1.2-.542,7.161-.541,7.961.485l11,29.108a2.393,2.393,0,0,1-.377,2.133m-19.486-12.809h8.683c.044,0,.972,1.093.659-.212a100.483,100.483,0,0,0-4.239-11.812c-.218-.49,0-1.136-.868-.891-.654.185-2.959,11.475-4.234,12.915" transform="translate(-165.311 -82.55)" fill="#0f0e0a"/></g></g></svg>