<svg xmlns="http://www.w3.org/2000/svg" xmlns:xlink="http://www.w3.org/1999/xlink" width="382.226" height="442.716" viewBox="0 0 382.226 442.716"><defs><clipPath id="a"><rect width="382.226" height="442.716" fill="none"/></clipPath></defs><g clip-path="url(#a)"><path d="M343.925,172.461c.765-.641,2.144-1.265,2.608-2.1,2.563-4.612,4.43-14.468,6.5-19.99,1.362-3.634,1.883-7.492,6.345-7.9,6.52-.6,13.817.955,20.441.73,1.559.51,2.483,2.83,2.4,4.38-.22,4.224-4.018,11.322-4.916,15.751,4.6,2.593,4.893,12.892,4.388,17.667-.858,8.111-7.748,16.9-13.437,22.427-5.453,5.3-6.2,4.331-10.059,11.557-3.034,5.681-11.338,4.676-16.748,3.433-13-2.986-6.611-10.727-7.349-20.407H249.355c-4.862,6.441-9.492,13.065-14.513,19.385-6.017,7.572-21.864,27.56-30.714,29.712-10.468,2.546-23.022-3.043-32.625-7.109-2.693-1.14-12-6.316-13.646-6.549-1.756-.248-2.459,2.642-4.673,2.3-1.163-.179-5.507-2.277-6.928-2.93-1.215-.558-8.624-4.913-9.156-4.355-.926,7.191-4.207,14-5.669,21.11-.7,3.418-1.807,10.2-1.67,13.491.031.748,1.628,4.965,2.148,5.064,20.381-4.6,40.836-9.416,61.522-12.56,20.954-3.185,39.717-6.63,52.636,14.014,7.109,11.36,13.777,26.078,19.676,38.295,5.818,12.049,15.211,29.56,19.117,41.8,1.382,4.329-.3,3.432-2.279,6.677,2.411,2.71,5.933,10.753,8.5,12.66.7.518,4.324.218,6.079.795,1.6.526,3.327,2.128,4.457,2.339.777.145,1.606-.49,2.521-.008.989.52.684,2.087,3.417,2.519,1.8.285,2.659-.389,3.7-.291.926.088,1.285,1.081,2.1,1.358,8.3,2.841,25.039-3.212,30.791,4.58,3.978,5.388,2.591,10.384-2.508,14.13-9.563,7.026-50.578,18.878-63.432,21.556-5.757,1.2-6.2-.011-8.339-5.13-3.19-7.62-5.921-18.556-4.259-26.666l-6.416-14.226c-1.448.866-3.788,2.3-5.178.737l-23.336-37.58c-.632-13.612,2.3-27.75-10.047-37.107,0-.43,5.249-3.441,5.4-5.937.282-4.667-6.4,2.8-7.628,3.716-12.334,9.21-44.755,19.8-60.277,24.714a111.245,111.245,0,0,1-17.087,4.286c-.115.857,1.115.462,1.712.486,1.865.076,4.073.122,5.921.021,10.755-.593,28.624-7.9,39.158-11.935a304,304,0,0,0,30.815-13.625c1.518,2.893,4.246,4.527,5.921,7.6,5.352,9.812,2.3,31.39.9,42.683-1.866,15.111-5.2,30.038-6.893,45.183-.564,1.672-3.647,1.145-3.831,1.327-.338.335-1.081,9.031-.925,9.481a58.282,58.282,0,0,0,4.881,4.018,59.162,59.162,0,0,0,6.825,3.941c.939.357,2.106.053,2.974.473.612.3.735,1.3,1.328,1.743.895.666,6.176,2.871,7.663,3.506,9.586,4.095,25.761,5.931,20.965,20.548h69.516c.868,0,2.084,2.79.245,3.685-109.019.4-218.072,1.235-327.191.492-1.519-.74-1.1-3.686-.244-3.686h14L36.387,339.5H28.772a19.341,19.341,0,0,1-2.681-1.25,7.406,7.406,0,0,1,2.883-13.529c-7.042-36.807-14.768-73.638-22.43-110.376-.937-7.909.847-13.261,9.081-15.232l34.942-.182c3.958-16.418,11.413-34.025,26.1-43.416-2.541-2.7-3.936-1.182-6.6-1.211-8.078-.087-15.2-7.717-15.988-15.5-1.817-17.984,13.666-22.183,16.565-36.975,1.072-5.472,1.1-11.127,2.431-16.729,2.663-11.22,8.761-20.954,18.747-26.941l.087-44.128A15.787,15.787,0,0,1,106.376.5L328.959.005c6.282-.235,14.966,7.323,14.966,13.528ZM340,29.009V14.024a20.174,20.174,0,0,0-1.382-3.53c-2.326-4.553-6.192-6.2-11.124-6.562-23.179-1.677-49.787.453-73.2.536-48.951.172-97.958-.164-146.933-.041-4.089-.543-11.527,5.2-11.527,9.106V29.009Zm0,3.93H95.831V56.52c14.609-6.081,32.67-5.53,46.51,2.372C150.8,63.72,157.723,72,156.768,82.332c-.194,2.1-1.361,3.579-1.488,4.939-.161,1.715.941,4.4,1,6.328.079,2.518-.88,4.869-.483,7.354.93,5.828,10.933,10.67,5.867,16.735-1.924,2.3-4.722,1.529-4.913,1.72s-.444,4.584-.629,5.512c-.984,4.929-2.565,12.824-6.512,16.086-5.883,4.862-13.415,2.882-19.879.5-.777,4.84-3.6,10.755-3.9,15.553-.054.832-.173,1.206.455,1.9.53.582,9,4.81,10.771,5.93,13.378,8.458,25.44,19.725,38.216,29.109,12.452-.595,25.075.619,37.627-.02l19.5-19.311c.126-1.5-.532-.239-.733-.239H173.207c-.6,0-2.58-1.71-2.235-2.678l0-115.993.717-2.23,147.332-.345,1.084.881V172.954l-1.7,1.251H268.244c-6.218,5.914-10.878,13.19-16.187,19.873H334.1c-.168-5.035.477-11.367,3.223-15.691.485-.763,2.672-2.487,2.672-3.223ZM206.368,57.011H174.926V84.523h31.442Zm36.355,0H210.3V83.786c0,.149-.622.377-.491.737h32.916Zm36.846,0H246.653V84.523h32.916Zm36.846,0H283.5V84.523h32.424ZM152.326,125.793c.433-2.3.135-8.545,2.47-9.571,1.751-.77,4.748.366,4.408-2.915-.177-1.7-3.793-5.08-4.923-6.911-3.829-6.2-1.505-7.653-1.963-13.762a27.7,27.7,0,0,0-7.116-15.97c-2.284,10.552-9,22.406-20,25.681-7.883,2.347-5.142-2.139-10.346-3.684-10.921-3.245-14.61,15.25-3.8,16.611,1.936.244,6.229-2.046,6.433.456.219,2.7-4.767,4.074-6.911,3.185.048,5.318,3.834,9.509,5.418,14.475a28.634,28.634,0,0,1,.845,15.124c-.559,2.257-2.22,4.088-2.826,6.26l8.35,1.97c.848-5.22,2.086-13.661,4.539-18.309,1.841-3.489,4.437-.113,7.351.768,8.916,2.694,15.871-.083,16.608-9.972-1.738.676-7.109-2.6-6.852-4.115.519-3.062,6.447,1.325,8.322.679m53.55-37.34H174.926v27.511h30.951Zm36.846,0H210.544c-1.094,0-.246,1.148-.246,1.228v57.234h32.424Zm36.846,27.511V89.19a4.924,4.924,0,0,0-.737-.737H246.653v27.511h18.914c1.832-2.41,2.049-13.9,5.427-14.263.587-.063,1.7.277,1.7.753v12.773c0,.15-.622.377-.491.737Zm36.846-27.511H283.5v27.511h32.916ZM206.368,146.915l-.737-27.021h-30.7v27.021Zm56.988-27.021h-16.7v24.072l3.674-7.871c2.41-3.895,5.054-8.563,8.6-11.541,2.091-1.755,4.218-1.647,4.427-4.661m5.4,0c-1.216-.278-1.1.478-1.32,1.356a66.422,66.422,0,0,0-1.623,11.413c3.4-2.97,1.444-8.822,2.943-12.768m10.808,12.277V120.632c0-1.26-6.22-.573-7.372-.74.523,1.234-.865,7.5-.49,7.863.155.149,3.4-.039,4.094,1.066Zm36.846-12.282H283.5v27.02h32.916Zm-53.549,6.883c-.859-.707-5.213,4.908-5.813,5.728-7.9,10.79-7.9,17.579-11.132,29.644-1.408,5.252-7.24,11.344-11.045,15.484-12.078,13.138-25.9,24.581-38.685,37l-2.387-.374-16.665-12.307-16.723,28.5c9.355,4.606,20.089,9.983,30.237,12.508,14.184,3.53,19.06-2.667,28.011-12.264,15.349-16.459,26.542-35.583,40.776-52.566,5.07-6.049,11.027-10.525,14.816-17.608,2.147-4.014,4.559-9.588,4.817-14.092-1.743.991-2.16,4.894-3.943,5.67a2.876,2.876,0,0,1-2.373-.334c-1.471-2.295,7.351-13.1,5.336-15.655-.707-.9-1.091.7-1.264.932-1.359,1.814-4.569,8.092-5.824,8.927-1.152.767-2.907.478-3.149-.838-.273-1.483,7.492-10.719,6.59-12.456-.308-.593-2-1.733-2.739-1.263-.525.335-2.608,3.6-3.424,4.467-1.561,1.665-6.479,6.629-8.188,7.535-1.1.582-2.221.915-2.89-.427-1.089-2.184,2.09-3.381,2.961-5.4,1.372-3.177,1.1-7.6,2.7-10.806m115.451,20.14-18.446-.76-1.716.986-12.777,40.809c5.235.354,10.437,1.009,15.693.669.5-1.819.516-3.759,1.059-5.571s5.043-8.7,6.361-10.343c.846-1.056,2.277-1.611,2.85-2.554,1.235-2.034,6.068-18.162,6.753-21.25a5.625,5.625,0,0,0,.223-1.986m-171.948,3.928H174.927V170.5h30.7c.667,0,.707-2.59.736-3.16.274-5.475-.257-11.042,0-16.492m36.355,0H210.3V170.5l25.815-.228c1.935-.778,6.609-8.7,6.609-10.826Zm73.692,0H283.5V170.5l32.916-.737ZM54.564,198.99H76.917c1.413,0,6.068,2.46,7.357,3.451,7,5.381,7.3,13.463,8.947,21.512,2.969,14.529,5.428,29.211,8.019,43.811a95.026,95.026,0,0,0,24.481-3.026c.781-2.6.259-5.4.576-8.017,1.23-10.15,4.758-19.695,7.4-29.5a1.653,1.653,0,0,0-.522-1.462c-.483-.535-7.346-4.03-8.806-4.947-2.146-1.346-12.787-7.792-13.235-9.4a2.007,2.007,0,0,1,1.675-2.616c3.489,1.4,6.642,4.285,9.89,6.318,3.667,2.3,28.521,16.816,30.757,16.238,1.932-.5,9.848-12.783,11.361-15.206,2.677-4.29,6.248-9.888,8.075-14.523.432-1.1,1.342-2.448.829-3.6-10.644-8.069-20.7-17.212-31.552-24.981-7.4-5.294-16.894-11.032-25.6-13.705-6.732-2.067-5.748-1.2-11.877.121a51.225,51.225,0,0,1-13.519.712c-2.522-.207-8.938-2.446-10.25-2.322-2.195.207-8.986,6.139-10.623,7.994C62.485,174.7,57.35,187.636,54.564,198.99m225-29.231c.685-2.688-.506-8.033,0-11.054l-3.233,5.856-4.141,5.684c1.546.293,3.122-.223,4.666-.272.875-.028,2.437.846,2.708-.214m98.25,13.508a31.293,31.293,0,0,0-1.221-15.716l-1.231,3.184Zm-6.868,11.3a9.37,9.37,0,0,0,3.45-5.643c.2-2-.645-8.566-1.122-10.691-.3-1.339-1.091-2.468-1.357-3.807-2.8,2.009-.628,6.941-.465,10.05a41.58,41.58,0,0,1-.507,10.091m-26.044-19.648c-1.265-.308-.858.4-1.277.918-7.687,9.456-4.914,13.793-5.6,24.866-.216,3.463-2.51,9.812-.015,12.307,1.994,1.994,12.164,2.713,14.9,2.085,2.479-.569,2.276-3.9,3.793-6.032,1.6-2.241,11.226-9.733,11.215-11.308,0-.345-1.294-.915-1.409-1.976-.132-1.218,1.3-2.743,1.5-4.393.419-3.361-.514-6.745-.508-10.082-2.987,3.285-1.533,7.213-4.429,11.041-1.369,1.81-11.082,10.092-12.958,9.572-1.564-.778-.178-3.21.682-4.161,1.735-1.919,5.189-3.04,6.882-5.147-3.242-1.144-14.012.573-15.748-2.185-1.85-2.939,1.959-12.135,2.976-15.5M208.333,198.013l-28.748-.5c-.476.041-1.559-.351-1.223.732.3.975,14.546,10.521,16.546,11.973ZM23.66,277.546l74.9.081.16-2.671c-4.438-19.368-6.384-39.48-10.981-58.788-1.664-6.989-4.627-11.987-12.273-13.274-18.6,1.247-39.163-1.571-57.523.009-5.161.444-7.884,2.539-7.972,7.967Zm21.569,3.978h-19.9c-.181,0-.464-.964-1.213.239l9.07,42.509c.656.929,2.657-.081,3.931-.056,4.081.081,8.176.518,12.267.556,4.824.045,9.708.136,14.508-.259-14.114-9.495-19.565-26.47-18.667-42.989m43.672.056c-.792-.156-3.1-.306-3.273.66l7.819,41.708c.39,1.231,2.311.754,3.364.806Zm95.359,41.7H162.153l3.84.828c6.016,1.745,7.706,10.334,1.911,13.521-3.344,1.839-7.093,1.071-10.672,1.625l17.7,99.483,2.451,0c-.031-9.283-.557-18.89,3.067-27.642.846-2.044,2.576-4.025,3.176-5.667,1.257-3.444.394-8.511,1.632-12.114.023-.832-5.595-.312-5.448-1.969Zm-59.054,4.566c-31.276.221-62.669.572-94,.328-5.942-.148-6.318,7.12-.5,7.411l132.178-.513c4.942-.14,6.7-5.161,1.858-7.266-13.178-.279-26.367-.054-39.544.04M87.97,438.733H171l-17.971-99.758-51.574.491ZM84.531,339.5H40.317L18.7,438.733H74.46Zm12.773,0H88.462c-.065,1.214.121,2.467,0,3.681-3.138,30.265-7.384,61.59-9.35,91.85-.08,1.225.086,2.485.018,3.709l4.636.009Zm165.559,28.993,6.144,14.237c5.277,2.034,11.939,4.045,16.227-.964,1.329-1.552,4.171-8.134,3.422-9.817l-9.332-13.281a62.337,62.337,0,0,1-16.46,9.825m45.674,10.33c-1.33-.159-3.165-1.554-4.409-.777-1.518.948-1.36,6.5-4.56,5.6-3.626-1.019,1.625-6.626.911-7.811-9.068-5.333-6.925-2.827-9.723,4.085-3.826,9.45-13.428,10.431-21.992,6.743-.4,6.943,1.967,13.505,3.439,20.143,23.05-7.762,46.968-13.279,69.264-23.1.458-.627-1.731-2.573-2.275-2.875-3.685-2.042-14.676-.392-19.609-.533-1.746-.05-6.285-1.316-7.353-.031s-.521,5.567-3.325,5.331c-3.856-.325.178-6.023-.368-6.776m33.911,8.825c-22.252,9.473-45.96,14.926-68.772,22.836,1.243,1.9.435,2.582,3.06,2.1,18.191-6.722,39.571-9.85,57.047-18.128,3.073-1.456,7.316-3.483,8.665-6.8m-131.657,6.874-22.112-.984c.658,2.634-2,12.04-1.246,13.738.575,1.3,4.568,4.03,6.026,4.33,6.661,1.371,8.736-2.621,13.329-5.607.758-.493,2.867-1.089,2.957-1.222.405-.6.707-8.742,1.046-10.256m-29.479,36.847,73.682-.737c-3.68-5.42-11.408-6.452-17.308-8.72-2.026-.779-8.245-4.156-9.558-4.223-1.555-.079-2.559,5.608-5.546,4.111-2.445-1.225.734-4.66,1.953-5.906a14.412,14.412,0,0,0-3.766-2.136c-1.577-.154-4.63,8.081-6.684,3.713-.973-2.069,2.255-4.27,3.062-6.007-1.915-1.377-3.768-3.448-6.312-3.428-1.611.013-5.07,4.094-7.075,5.25-7.163,4.128-13.4,2.6-19-3.041l-3.445,11.544Zm0,6.878H251.32c.777,0,5.526-2.132,4.174-3.436-24.244-.132-48.57.018-72.762.336a4.282,4.282,0,0,1-1.414-.338Z" transform="translate(0 0)" fill="#0f0e0a"/><path d="M227.224,27.033c4.639-1.408,6.3,5.883,1.743,6.7-4.062.732-5.668-5.513-1.743-6.7" transform="translate(-114.341 -13.648)" fill="#0f0e0a"/><path d="M255.2,32.569c-2.561-2.71,1.173-8.138,4.828-5.076,3.392,2.842-1.631,8.459-4.828,5.076" transform="translate(-129.275 -13.511)" fill="#0f0e0a"/><path d="M291.118,184c3.806-.74,7.493,3.916,4.2,4.744-1.032.26-2.075-.973-3.342-.961-1.646.016-2.555,2.075-4.158,1.29-2.854-1.4,1.408-4.706,3.3-5.073" transform="translate(-145.795 -93.477)" fill="#0f0e0a"/><path d="M294.872,205.915c2.954-.847,4.667,5.837.811,6.207-3.086.3-2.92-5.6-.811-6.207" transform="translate(-149.079 -104.618)" fill="#0f0e0a"/><path d="M455.625,202.907a2.022,2.022,0,0,1,2.621,1.678c.127,1.466-6,8.231-7.376,9.8,1.454,2.2,9.128,9.615,7.616,12.04-2.723,4.365-8.4-8.74-10.29-8.336-1.92,1.429-6.687,9.531-8.473,9.7a2.019,2.019,0,0,1-2.184-2.1c.026-2.769,7.964-9.1,7.9-11.316-.057-2.013-8.36-7.66-5.653-10.063,3.007-2.669,6.454,5.33,8.362,6.874.839.024,5.813-7.806,7.476-8.273" transform="translate(-222.376 -103.084)" fill="#0f0e0a"/></g></svg>