<svg xmlns="http://www.w3.org/2000/svg" xmlns:xlink="http://www.w3.org/1999/xlink" width="598.844" height="664.227" viewBox="0 0 598.844 664.227">
  <defs>
    <clipPath id="clip-path">
      <rect width="553.932" height="526.113" fill="none"/>
    </clipPath>
    <clipPath id="clip-path-2">
      <rect id="Rect치ngulo_18" data-name="Rect치ngulo 18" width="553.932" height="461.113" fill="#161615"/>
    </clipPath>
    <clipPath id="clip-path-3">
      <rect id="Rect치ngulo_19" data-name="Rect치ngulo 19" width="545.577" height="664.227" fill="none"/>
    </clipPath>
  </defs>
  <g id="Grupo_93" data-name="Grupo 93" transform="translate(-1201.122 -307.886)">
    <g id="Grupo_de_desplazamiento_1" data-name="Grupo de desplazamiento 1" transform="translate(1246.034 427.887)" clip-path="url(#clip-path)" style="isolation: isolate">
      <g id="Grupo_12" data-name="Grupo 12">
        <g id="Grupo_11" data-name="Grupo 11" transform="translate(0 0)" clip-path="url(#clip-path-2)">
          <path id="Trazado_67" data-name="Trazado 67" d="M536.315,143.416h0a46.642,46.642,0,0,0-38.371-24.681l31.214-16.6a46.676,46.676,0,1,0-43.822-82.426L394.689,67.9A46.67,46.67,0,0,0,331.211,5.47L96.52,130.241a46.67,46.67,0,0,0,16.253,87.539l-88,46.781A46.677,46.677,0,1,0,68.6,346.991l39.83-21.177a46.679,46.679,0,0,0,62.124,64.915l22.465-11.945a46.677,46.677,0,0,0,58.616,70.05l100.745-53.56a46.668,46.668,0,0,0,64.467,60.365l68.564-36.454a46.666,46.666,0,0,0-13.985-87.2l41.031-21.814A46.676,46.676,0,0,0,487.169,222.4l29.842-15.862a46.675,46.675,0,0,0,19.3-63.126" transform="translate(0.001 -0.001)" fill="#161615"/>
        </g>
      </g>
    </g>
    <g id="Grupo_14" data-name="Grupo 14" transform="translate(1201.122 307.886)">
      <g id="Grupo_13" data-name="Grupo 13" clip-path="url(#clip-path-3)">
        <path id="Trazado_68" data-name="Trazado 68" d="M499.862,175.364c-.519-2.7-3.621-2.028-1.834-5.892.427-.924,7.487-6.394,9.191-8.5,11.974-14.793,12.406-31.705,1.366-47.046C497.342,98.3,491.606,99.487,486.357,77.905c-4.809-19.773-9.323-54.751-34.966-58.671-2.729-.417-6.265.341-8.518-.33-1.389-.413-9.485-7.787-14.028-9.566-25.527-10-72.269,9.088-82.474,35.022-3.274,8.318-3.846,22.412,3.819,28.519V61.451a7.753,7.753,0,0,1,4.38-6.68c11.684-5.937,27.338-7.427,38.921-15.638,2.4-1.7,6.962-8.188,9.8-4.977,1.368,1.551.557,6.807.916,9.409,1.117,8.075,7.1,18.287,13.073,23.792,1.743,1.606,12.982,9.7,14.512,9.847.923.086,2.957-2.136,4.376-2.769,10.47-4.679,21.494,1.248,22.4,12.831.99,12.669-8.62,18.594-10.875,29.658-2.361,11.59.449,27.581,7.323,37.3,9.258,13.091,26.21,15.324,39.673,22.332a18.233,18.233,0,0,0,4.44-.456c-.836.34-2.3,1.3-1.037,2.239,3.175,2.345,10.5,4.975,14.549,7.474C536.128,200.3,541.575,213,550.013,238.388c5.739,17.27,10.243,35.026,15.44,52.473.436,4.75-5.061,5.432-8.824,5.419,1.419,12.963,4.148,25.857,5.8,38.814,1.725,13.531,5.314,35.924-.263,48.189-3.841,8.444-16.442,17.694-25.806,17.694H510.922c11.354,31.064,13.713,71.626-14.106,94.644l-8.75,5.629h57.141c1.354,0,4.812,5.974-2.915,6.67-23.57,2.123-51.736-.651-76.007-.065-4.492.108-10.209,1.338-14.723,1.5-16.05.562-33.869-1.855-50.1-2.235-33.356-.782-66.821.674-100.185,0-11.7,33.038-22.464,66.444-35.241,99.1-1.363,4.935-13.378-1.548-13.9-1-.388,5.54-3.787,12.725-3.752,18.068.036,5.544,4.037,15.807,4.51,22.823.431,6.4,1.833,18.031-7,18.127L80.29,663.872c-7.77-1.859-3.917-12.26-.562-16.88,7.691-10.589,26.953-13.555,38.713-19.533,3.857-1.961,25.395-15.719,26.6-18.373.762-1.674,3.686-15.76,3.094-16.383-3.63-1.112-14-.441-13.835-5.339,7.666-33.324,14.509-66.85,22.336-100.133,5.412-23.012,9.433-57.269,27.458-72.767.53-.456,1.383.037.937-1.691H156.65c-6.32,0-10.258-8.008-12.179-12.889-16.659-42.344-27.826-88.359-44.634-130.852-1.592-5.2,2.85-11,8.116-11.126l151.21.005c5.823.363,10.074,3.734,12.5,8.879,9.293,26.837,17.955,53.932,26.184,81.1,1.465,1.255,14.871-9.883,17.68-10.88l12.524-54.473c.17-4.318-10.4-3.492-8.039-10.15,10.4-24.957,15.37-62.641,36.465-80.784,4.032-3.468,9.144-5.881,12.881-9.607,3.289-.264,7.866-3.8,11.3-5.292,2.9-1.259,18.279-6.855,18.822-8.472.8-2.391-.9-6.764-3.358-7.469-2.542-.729-7.031-.377-10.546-1.25-18.293-4.545-28.373-21.646-32.808-38.711-.4-1.552-.879-7.08-1.107-7.376-1.089-1.416-1.273.431-1.542,1.038-8.413,18.927-18.261,38.1.439,54.26,3.574,3.089,7.006,2.023,3.319,8.848-19.906-9.315-24.156-25.082-17.9-45.553,3.985-13.048,18.728-35.827,13.808-48.78-1.469-3.866-7.9-8.5-10.273-14.8-17.1-45.474,64.744-85.426,100.139-61.062,1.631,1.122,6.454,6.3,6.909,6.424,1.341.366,2.99-.675,4.788-.5,36.462,3.647,34.549,50.006,44.7,74.076,5.565,13.2,20.3,21,25.416,36.517,6.1,18.517-3.948,43.094-21.6,51.458M426.707,81.887c-.383-.679-10.688-7.231-12.72-9.027-8.1-7.163-14.673-17.787-15.879-28.735-5.939,2.725-11.676,5.915-17.711,8.455-3.326,1.4-22.073,7.725-22.9,8.8-1.572,2.045-.241,8-.668,10.761,3.932-.924,11.517-.372,11.8,4.855.369,6.7-8.954-.587-10.964,2.621-.713,1.137-.338,23.645-.135,26.837,2.094,32.953,27.582,64.667,59.761,36.843,2.645-2.288,7.655-9.921,10.525-9.123,5.976,1.662-3.723,13.742-5.732,16.128a61.6,61.6,0,0,1-16.246,13.232c.641,4.1,4.2,20.937,2.276,23.668-.627.891-2.7.893-3.722.708-4.116-.746-1.874-9.4-3.338-12.55-4.141,1.637-6.038,1.538-7.583,6.049-4.412,12.88,2.367,25.045,16.166,26.3,20.7,1.872,46.88-18.214,55.494-36.412-22.462-11.1-27.711-37.137-23.518-60.072-2.571.321-6.924-.236-7.393-3.358-.839-5.589,5.278-2.847,8.327-3.442,9.532-1.862,14.8-26.728-.5-24.845-5.437.669-10.313,7.535-12.562,7.346-3.333-.28-2.073-3.772-2.785-5.036m131.386,207.73c-3.1-11.817-6.336-23.684-9.94-35.36-9.4-30.445-13.273-48.292-42.635-65.011-3.91-2.226-31.822-15.8-33.987-15.3-9.944,19.947-38.825,42.5-61.9,40.4-17.613-1.6-26.5-16.406-23.32-33.085-17.483,8.295-30.456,15.595-38.965,33.651-8.724,18.511-13.81,39.372-20.75,58.505l22.12,7.371c-1.5-8.955,1.06-19.817,3.492-28.573,1.124-4.049,5.623-18.336,7.63-21.124,1.965-2.727,6.816-1.951,5.676,3.456-.942,4.464-4.947,11.889-6.488,17.112-7.9,26.775-2.8,32.061,2.04,56.97,2.053,10.575,2.533,22.162,3.972,32.893.576,1.842,3.627,1.046,5.334,1.3,15.181,2.265,32.312,13.014,45.8,12.432,23.267-1.006,49.349-5.943,73-8.1,4.992-.456,10.091-.766,15.108-.745-1.8-4.534-5.8-36.527-7.383-37.605-.651-.444-3.717,2.715-5.54-2.919-5.006-15.463-6.126-34.206-11.374-49.9-.725-4.158,4.884-5.839,6.238-1.737l10.7,47.189ZM306.69,395.079,265.975,270.269c-.042-1.9-4.88-5.693-6.1-5.693H107.251c-1.225,0-1.169,2.79-.953,3.877,1.6,8.029,8.009,21.859,10.92,30.394,6.182,18.126,12.4,36.31,18.63,54.363,4.787,13.879,9.479,27.84,13.8,41.869Zm52.346-53.091c-2.008-9.505-2.2-19.334-3.917-28.885-1.441-8.035-4.226-15.677-5.825-23.667-1.442-2.842-11.627-4.444-14.578-6.427-4.187,19.179-9.684,38.115-12.918,57.5l-21.041,14.534,8.154,26.024c11.59-17.334,27.54-37.953,50.126-39.081m190.959-43.493L502.8,306.609l7.388,38.327c3.226.9,8.924-1.365,11.612-.25,1.978.821,2.342,4.722.171,5.782-22.951,2.54-45.96,4.58-68.923,7.015-11.7,1.24-30.518,5.4-41.3,5.014-9.242-.33-27.145-10.448-38.079-12.647-23.325-4.691-38.04,5.522-51.359,23.614-.941,1.278-8.841,12.982-8.243,13.5,7.56,1.374,5.895-2.115,8.975-6.869,7.08-10.928,21.485-24.756,35.148-24.722,3.222,6.822-3.8,6.263-8.5,8.6-9.327,4.643-18.591,14.44-23.089,23.722,1.568-.129,3.788.465,5.158-.365.929-.563,6.145-7.172,8.1-8.853,4.924-4.225,23.438-16.24,29.5-13.261,1.837.9,1.879,4.079.562,5.356-.934.908-4.468.987-6.127,1.611-9.651,3.63-18.736,9.047-25.4,16.986,2.336-.256,5.392.49,7.587-.147,1.464-.425,8.314-5.308,11.084-6.611,2.9-1.366,11.357-5.037,14.135-5.045,2.955-.009,14.172,6.4,18.965,7.6,13.768,3.449,35.317,2.965,50.336,4.225,28.714,2.409,63.5,7.478,92.159,5.14,33.71-2.75,26.162-33.658,23.132-57.761-1.6-12.735-4.242-25.338-5.8-38.073M364.2,386.968l-8.105,2.958c.659,2.051,4.6.723,5.156.728.491,0,.985-.019,1.475,0-.411,2.348,1.183,1.3,2.571,1.452,7.964.864,15.974,1.807,23.972,2.235.489.026.984-.018,1.475,0a44.283,44.283,0,0,0,5.161,0c4.98,1.546,10.338,1.58,15.483,2.212,2.576.316,4.706-.413,7.315,1.163,4.48,2.705,2.766,8.906-.276,12.143-2.112,2.247-5.976,2.627-6.3,2.915l-130.167-.035c-2.3.313-4.685.459-6.97.773-6.111.841-8.022,1.705-13.271,4.424-.5.258-.949.423-1.475.737a36.289,36.289,0,0,0-3.686,2.212c-4.811,3.7-8.011,8.09-11.059,13.271C233.76,454.1,228.4,481.212,221.9,503.461c-3.65,12.488-7.615,24.972-11.059,37.6-2.209,8.1-4.5,16.213-6.636,24.331-.209.8-.562,1.533-.737,2.212-.11.427.11,1.047,0,1.475-.439,1.713-1.04,3.422-1.475,5.161-.742,2.967-2.868,8.892-2.965,11.426-.08,2.086,1.7.748,2.965,1.108,19.5,5.516,39.767,8.589,59.3,14.038,2.479-5.452,3.787-11.357,5.578-16.987,2.163-4.2,5.3-10.852,5.9-15.483.031-.242-.036-.5,0-.737,1.867-1.909,2.288-4.874,2.949-7.373.061-.23-.063-.509,0-.737a4.638,4.638,0,0,0,.737-1.475c.066-.227-.066-.51,0-.737a80.065,80.065,0,0,0,4.45-10.665c.645-2.04,2-5.871,2.185-7.767.024-.24,0-.494,0-.737L303,476.181c.157-.393.5-.9.737-1.475,1.223-2.929,1.366-5.407,2.212-8.11.614-1.962.678-4.106,2.914-4.849,9.6-3.19-1.511,17.364.03,18.855,8.376,1.235,16.776,2.783,25.073,4.427,14.736,2.917,29.458,6.14,44.238,8.848,28.4,5.2,65.324,13.377,93.637,6.636,4.336-1.032,7.245-2.606,11.059-4.424.514-.245.973-.479,1.475-.737,1.141-.588,3.105-.34,3.686-2.212.2-.1.554.1.737,0a35.021,35.021,0,0,0,2.949-2.212c.277-.193.469-.535.737-.737,2.2-1.657,4.91-3.162,5.9-5.9a23.452,23.452,0,0,0,4.424-5.161c.114-.167-.113-.564,0-.737.167-.257.568-.456.737-.737,4.309-7.17,6.73-12.937,7.373-21.382.037-.486-.015-.986,0-1.475,1.349-1.7.723-5.059.737-7.373.013-1.963,0-3.935,0-5.9,0-.246,0-.492,0-.737-.008-.737.024-1.476,0-2.212-.073-2.194.158-4.453,0-6.636-.47-6.508-1.66-13.423-4.424-19.17-.059-4.444-2.631-8.28-3.787-12.435l-19.807-.829c3.244,5.866,6.28,11.852,9.585,17.688.155.274.588.478.737.737.883,3.666,3.777,6.231,2.949,10.322-5.629,3.406-6.037-1.22-8.848-5.9l-.737-1.475c-.235-.373-.407-.942-.737-1.475l-10.472-20.488-17.546-.894c-15.622-2.658-38.1-5.13-53.823-4.424-.49.022-.984-.019-1.475,0-2.465-.91-5.876-1.033-8.848-1.475a49.423,49.423,0,0,1-9.965-2.2c-8.623-2.914-11.551-9.056-20.264-2.961M414.335,403.2l-101.01-9.585c1.722,2.623,2.513,12.707,5.521,13.273l88.513.019c2.831-.031,5.666-1.05,6.976-3.707m-103.959,3.679c.332-1.042-.869-5.9-1.843-5.9H151.857c-.2,1.872,4.663,5.9,6.267,5.9Zm-95.112,8.848c-11.406-4.164-15.544-2.2-25.805,2.212-.254.109-.491.531-.737.737-.665.563-.954.958-1.475,1.475l-1.475,1.475c-.4.458-.93.8-1.475,1.475-.741.276-1.037.9-1.475,1.475-2.727,3.615-5.8,10.425-7.373,14.746a84.837,84.837,0,0,0-4.424,16.221c-.064.47.037.992,0,1.475-1.2.63-.694,2.505-.737,3.686a9.849,9.849,0,0,0-.737,1.475c-.681,2.109-.936,4.461-1.475,6.636-3.829,15.458-7.555,30.907-11.059,46.45-3.417,15.157-7.132,30.417-9.585,45.713-1.509,5.9-3.127,11.73-4.424,17.7a37.96,37.96,0,0,1-1.479,5.89c2.453.089,5.015,1.228,7.377,1.483.481.052,1-.062,1.475,0,5.047,1.52,10.334,2.583,15.483,3.686,11.861,2.544,24.046,4.536,35.381,8.848l1.483-4.416c-3.758-1.248-10.461,0-11.056-4.863-.261-2.134,2.181-8.46,2.757-11.209.285-1.36-.018-2.786.189-3.843a2.5,2.5,0,0,0,.737-1.475c.047-.236-.045-.5,0-.737a10.766,10.766,0,0,0,.737-2.212c.043-.238-.044-.5,0-.737,1.823-2.21,1.72-5.432,2.212-8.11.044-.237-.041-.5,0-.737,1.458-1.971,1.939-4.989,2.212-7.373.028-.243-.023-.494,0-.737,1.918-1.948,1.619-5.205,2.212-7.373.063-.229-.063-.509,0-.737.148-.531.487-1.3.737-2.212.891-3.252,2.317-5.877,2.949-9.585.079-.461-.09-1.03,0-1.475.048-.237-.048-.5,0-.737a41.336,41.336,0,0,0,4.424-14.746c.013-.244,0-.493,0-.737,1.072-.375.564-1.525.737-2.212.058-.23-.049-.5,0-.737a2.751,2.751,0,0,0,.737-1.475c.051-.235-.052-.5,0-.737,1.276-1.16,1.3-2.853,1.475-4.424.027-.243-.038-.5,0-.737,2.794-5.5,3.99-11.786,5.161-17.7.047-.237-.051-.5,0-.737,2.572-2.439,3.117-7.643,3.686-11.059.119-.315.481-.776.737-1.475,4.3-11.725,7.78-22.976,12.534-34.653.086-.211-.087-.527,0-.737l2.212-4.424c.223-.487.5-.966.737-1.475,4.088-2.865,1.845-5.615-2.212-6.636-.257-.226-.466-.528-.737-.737a51.281,51.281,0,0,0-20.644-8.848M196.092,603l-41.281-8.854L151.4,610.025c.17,1.233,17.269,16.58,18.513,16.574l24.36-16.212c1.838-1.968,1.948-4.86,1.823-7.386m49.382.757-36.394-8.188-5.652,15.1c11.2,9.572,22.951,18.25,38.4,11.717Zm-115.367,53.8H245.863c1.3,0,1.231-4.118,1.106-5.161H133.425c-.181-3.256,4.048-5.632,6.6-7.035,7.977-4.376,18.7-7.581,27.312-10.666-.118-2.348-1.6-3.061-3.7-2.663-3.9.739-14.778,5.769-18.915,7.7-3.193,1.492-10.117,4.526-12.331,6.839-1.708,1.784-5.511,9.98-2.285,10.987m-7-5.161H83.657c-.819,0-2.092,4.194-1.843,5.161H123.1Z" transform="translate(-19.9 0)" fill="#131313"/>
        <path id="Trazado_69" data-name="Trazado 69" d="M594.733,178.465a18.237,18.237,0,0,1-4.44.456c-13.463-7.008-30.415-9.241-39.673-22.332-6.874-9.721-9.684-25.712-7.323-37.3,2.254-11.065,11.865-16.99,10.875-29.659-.905-11.582-11.929-17.51-22.4-12.831-1.419.633-3.453,2.855-4.376,2.769-1.531-.142-12.769-8.242-14.512-9.847-5.978-5.5-11.956-15.717-13.073-23.792-.36-2.6.452-7.857-.916-9.409-2.834-3.212-7.393,3.273-9.8,4.977-11.582,8.211-27.237,9.7-38.921,15.639a7.75,7.75,0,0,0-4.38,6.679V75.243c-7.665-6.107-7.094-20.2-3.82-28.519C452.185,20.79,498.927,1.7,524.454,11.7c4.543,1.779,12.638,9.153,14.027,9.566,2.253.67,5.789-.088,8.519.33,25.643,3.92,30.156,38.9,34.965,58.671,5.249,21.581,10.986,20.4,22.228,36.019,11.04,15.341,10.607,32.254-1.365,47.046-1.705,2.106-8.764,7.577-9.191,8.5-1.786,3.865,1.315,3.2,1.834,5.892-.227.108-.458.644-.737.737m-11.268-17.916c4.691-3.9,6.811-19.344,6.044-25.153-1.385-10.484-11.875-16.139-13.617-21.773-1.2-3.876-.383-12.6-1.143-17.29-3.874-23.925-34.8-37.053-49.3-54.657C523.283,39.05,518,28.185,514.7,34.7c-1.145,2.253,7.026,12.705,8.878,14.75,12.334,13.628,41.6,28.331,44.539,47.624.738,4.841-.139,15.274.964,18.943.509,1.693,7.827,9.049,9.6,11.778,3.858,5.928,5.216,10.453,4.081,17.685-.534,3.4-5.176,11.6-5,13.417.269,2.833,3.727,3.3,5.708,1.653" transform="translate(-115.508 -2.364)" fill="#4b8fce"/>
        <path id="Trazado_70" data-name="Trazado 70" d="M72.243,660.956c1.267.139.811-2.548.759-3.341-1.969-29.885-2.734-49.819,22.081-70.762,2.3-1.941,10.843-9.012,13.338-5.027,1.264,2.018,4.1,15.418,4.354,18.319,1.807,20.9-6.2,39.875-20.253,54.927-3.811,4.081-8.818,7.175-12.212,11.436,1.243,9.791,2.487,19.582,3.839,29.356.942,6.806,5.149,22.888,3.42,28.719-.711,2.4-3.557,2.432-5.072.765L76.62,690.5c-8.481-.84-16.651-.838-25.036-2.616-16.629-3.525-31.265-12.776-42.4-25.434C7.64,660.688.759,652.178.285,650.671c-.5-1.581-.483-3.272,1.177-4.083,1.571-.769,11.275-1.721,13.64-1.84,22.72-1.148,40.135,7.647,54.177,25.061L55.3,635.5C23.411,622.607,8.741,590.9,12.515,557.37c.838-7.454,4.8-5.974,10.321-3.686,24.293,10.067,39.983,32.387,39.878,58.981-.019,4.737-2.756,14.466-2.139,18.239.97,5.923,8.41,20.009,10.956,26.706a10.808,10.808,0,0,1,.712,3.346M19.15,571.01c-.012.491.007.984,0,1.475-.069,4.754.689,7.36,1.475,11.8a53.215,53.215,0,0,0,2.212,9.585,23.025,23.025,0,0,0,1.475,2.949c.246.594.522,1.006.737,1.475a52.115,52.115,0,0,0,3.686,7.373c.17.276.564.473.737.737a8.683,8.683,0,0,0,.737,1.475c.206.287.544.484.737.737.306.4.424,1.089.737,1.475A62.663,62.663,0,0,0,46.43,623.359c.171.113.562-.111.737,0,.254.161.455.565.737.737.91.556,5.981,4.448,6.632,3.683.046-1.466-.048-2.952,0-4.42.018-.49-.009-.984,0-1.475,1.76-5.985,2.471-13.323,0-19.17-.5-10.15-3.993-17.261-10.322-25.068-.217-.268-.514-.476-.737-.737a58.871,58.871,0,0,0-13.271-11.8h-.737a8.49,8.49,0,0,0-.737-.737,21.222,21.222,0,0,0-7.373-3.686c-.553-.355-1.072-.495-1.475-.737-.035-.021-.341-1.413-.741-.366Zm70.043,77.416c13.9-14.371,22.163-39.193,14.822-58.707-.2-.526.079-1.56-1.172-1.009-1.837.81-7.553,6.644-9.258,8.46a63.9,63.9,0,0,0-6.6,8.492c-2.718,4.113-5.69,8.062-5.9,13.271-.166.386-.486.916-.737,1.475-2.79,6.191-2.669,21.4-2.242,28.417.1,1.706.651,9.514,2.242,8.825ZM69.286,683.072c-11.5-22.449-34.052-36.1-59.72-30.952,13.31,19.353,36,31.717,59.72,30.952" transform="translate(0 -144.965)" fill="#131313"/>
        <path id="Trazado_71" data-name="Trazado 71" d="M447.988,217.8c3.687-6.824.255-5.758-3.319-8.847-18.7-16.163-8.853-35.334-.439-54.261.27-.608.453-2.454,1.542-1.038.228.3.7,5.824,1.107,7.376,4.435,17.066,14.514,34.166,32.808,38.711,3.515.874,8,.521,10.546,1.25,2.456.7,4.161,5.078,3.358,7.469-.543,1.617-15.917,7.213-18.822,8.472-3.431,1.488-8.009,5.028-11.3,5.292-4.708.378-11.2-2.419-15.483-4.424" transform="translate(-114.01 -40.229)" fill="#4b8fce"/>
        <path id="Trazado_72" data-name="Trazado 72" d="M502.985,538.226c2.632.448,7.49.907,9.833,1.478.625.153.411,1.517.863,1.5,1.609-.066,3.31-2.822,6.969-.361,1.438.967,5.034,10.837,6.459,13.41.675,1.217,2.864,3.7,3.894,5.356.33.532.5,1.1.737,1.475.181.288.391.9.737,1.475,2.811,4.678,3.219,9.3,8.848,5.9.2-.12,1.122.243,1.37-.071,1.475-1.875-3.266-8.418-4.319-10.251-.149-.259-.582-.463-.737-.737.852-3.229-1.607-3.868-2.418-5.357-1.875-3.44-3.392-7.263-4.952-10.86,3.971.446,16.84-.652,18.35,3.546.591,1.643.446,3.782,1.038,5.45.513,1.447,1.638,2.064,1.99,2.8,2.763,5.747,3.953,12.662,4.424,19.17-1.242,1.374-1.242,5.261,0,6.636.024.736-.008,1.475,0,2.212l-.723.369.723.369c0,1.963.013,3.935,0,5.9-1.392,1.723-.666,5.032-.737,7.373-.015.489.037.989,0,1.475l-7.373,21.382c-.169.281-.57.48-.737.737l-.723.364.723.374a23.432,23.432,0,0,1-4.424,5.161c-.818.753-1.432,1.792-2.016,2.227-1.727,1.29-4.678.6-3.883,3.671-.268.2-.46.544-.737.737l-1.017.018c-.83-.639-.017-1.773-1.186-1.488l-.747,3.681c-.183.1-.54-.1-.737,0-1.274.652-2.74,1.029-3.686,2.212-.5.258-.961.492-1.475.737-2.4.818-5.106,1-7.5,1.724-.96.293-4.043,1.1-3.563,2.7-28.313,6.741-65.232-1.433-93.637-6.636.434-2.239-1.089-1.292-2.443-1.575-11.4-2.373-22.837-4.845-34.253-7.073-2.034-.4-5.878-1.549-7.542-.2-8.3-1.643-16.7-3.192-25.073-4.426-1.542-1.492,9.566-22.046-.031-18.856-2.236.743-2.3,2.887-2.914,4.849-2.685.994-1.929,3.136-2.411,5.342-.28,1.28-2.395,1.7.2,2.769-.24.575-.58,1.082-.737,1.475-5.552,13.877-8.782,29.473-14.807,43.66-2.177,5.126-2.127,9.4-3.962,14.645-.947,2.707-1.076-.421-1.138,3.628,0,.243.024.5,0,.737-.358.987-1.874,1.249-2.162,2.041-1.657,4.548-3.038,11.442-4.473,16.392-.066.227.066.51,0,.737l-.737,1.475c-.063.228.061.507,0,.737-1.209.641-3.243,4.5-3.492,5.692-.181.868.564,1.54.543,1.681-.036.24.032.5,0,.737-1.437,1.723-2.978,5.58-3.709,7.719-.865,2.527-1.379,5.22-2.189,7.765-1.791,5.63-3.1,11.536-5.578,16.987-19.538-5.449-39.808-8.522-59.3-14.038,1.75-.717-1.354-1.277-1.5-1.857-.535-2.125,1.349-1.66,1.492-2.32.353-1.629.754-6.646.009-8.357.435-1.739,1.036-3.448,1.475-5.161,2.191.452,2.31-1.884,0-1.475.175-.679.528-1.416.737-2.212,2.853.305,1.775.005,2.3-1.719,1.7-5.6,3.348-13.221,4.531-19.04.219-1.076,1.309-2.788-.194-3.571,3.445-12.63,7.409-25.115,11.059-37.6,3,.128,1.551-5.045,2.6-6.651.341-.524,1.551-.568,1.732-.854.37-.583,1.846-11.125,2.482-13.334a355.037,355.037,0,0,1,16.388-45.545c.27-.615,1.58-2.684.4-2.921,3.049-5.181,6.249-9.567,11.06-13.271l.363.723,3.324-2.935c.526-.314.976-.479,1.475-.737l13.271-3.686,136.672.015c.939.138.253-1.3.465-1.489.326-.288,4.19-.668,6.3-2.915,3.043-3.237,4.756-9.437.276-12.143-2.609-1.576-4.739-.847-7.315-1.164.637-3.593-7.273.644-6.636-2.949,15.727-.706,38.2,1.766,53.823,4.424" transform="translate(-64.312 -140.199)" fill="#d2cbc2"/>
        <path id="Trazado_73" data-name="Trazado 73" d="M647.468,351.59,586.3,363.415l-10.7-47.189c-1.354-4.1-6.962-2.421-6.237,1.737,5.248,15.693,6.369,34.435,11.374,49.9,1.823,5.634,4.889,2.474,5.54,2.919,1.584,1.078,5.579,33.071,7.383,37.605-5.017-.022-10.117.29-15.108.744-23.653,2.157-49.735,7.094-73,8.1-13.489.583-30.62-10.167-45.8-12.432-1.708-.255-4.759.541-5.334-1.3-1.438-10.731-1.918-22.317-3.972-32.892-4.835-24.908-9.943-30.195-2.04-56.969,1.542-5.224,5.546-12.649,6.488-17.113,1.141-5.407-3.711-6.183-5.676-3.456-2.008,2.788-6.507,17.076-7.63,21.124-2.432,8.756-4.994,19.618-3.492,28.573l-22.12-7.371c6.941-19.133,12.026-39.995,20.75-58.505,8.509-18.056,21.483-25.356,38.965-33.651-3.18,16.679,5.707,31.481,23.321,33.085,23.075,2.1,51.957-20.451,61.9-40.4,2.165-.5,30.077,13.071,33.987,15.3,29.362,16.72,33.239,34.567,42.635,65.011,3.6,11.677,6.838,23.543,9.94,35.359" transform="translate(-109.276 -61.974)" fill="#e74e13"/>
        <path id="Trazado_74" data-name="Trazado 74" d="M317.53,489.348H160.486c-4.319-14.029-9.011-27.99-13.8-41.869-6.226-18.053-12.447-36.236-18.629-54.363-2.912-8.535-9.324-22.364-10.921-30.394-.215-1.086-.272-3.877.953-3.877H270.712c1.223,0,6.062,3.8,6.1,5.693Zm-93.888-47.439c10.834-10.834-8-35.558-21.1-27.363-14.573,9.123,7.278,41.18,21.1,27.363" transform="translate(-30.74 -94.269)" fill="#fcf8f2"/>
        <path id="Trazado_75" data-name="Trazado 75" d="M634.9,404.849c1.555,12.735,4.2,25.339,5.8,38.073,3.03,24.1,10.578,55.011-23.132,57.761-28.659,2.339-63.445-2.731-92.159-5.14-15.019-1.26-36.568-.776-50.336-4.225-4.793-1.2-16.01-7.605-18.965-7.6-2.779.009-11.231,3.68-14.135,5.046-2.77,1.3-9.62,6.187-11.084,6.611-2.195.638-5.25-.108-7.587.147,6.665-7.939,15.75-13.356,25.4-16.986,1.659-.624,5.193-.7,6.127-1.611,1.317-1.278,1.275-4.455-.562-5.356-6.063-2.979-24.576,9.036-29.5,13.261-1.96,1.681-7.175,8.29-8.1,8.853-1.371.83-3.591.235-5.158.365,4.5-9.282,13.762-19.079,23.089-23.722,4.7-2.34,11.726-1.781,8.5-8.6-13.664-.034-28.069,13.793-35.148,24.722-3.08,4.755-1.415,8.244-8.975,6.869-.6-.518,7.3-12.222,8.243-13.5,13.319-18.093,28.034-28.3,51.359-23.614,10.933,2.2,28.836,12.317,38.079,12.647,10.786.386,29.6-3.774,41.3-5.014,22.963-2.435,45.972-4.475,68.923-7.015,2.171-1.06,1.807-4.961-.171-5.782-2.687-1.116-8.385,1.151-11.612.25L587.7,412.963Z" transform="translate(-104.801 -106.354)" fill="#fcf8f2"/>
        <path id="Trazado_76" data-name="Trazado 76" d="M239.229,563.029c4.84,1.767,10.561,4.015,14.924,6.017,2.012.924,3.49,2.533,5.72,2.83.271.209.48.511.737.737,3.29,2.9,4.254,2.177,2.212,6.636-.233.509-.515.987-.737,1.475-.653,1.431-1.448,2.57-2.212,4.424-.087.21.086.526,0,.737l-5.336,8.3c-1.571,8.949-5.84,15.113-7.65,24.087-.169.84-2.061,1.213.452,2.262-.257.7-.618,1.16-.737,1.475-1.612,4.257-2.723,6.625-3.686,11.059-.051.234.047.5,0,.737l-5.542,15.882c-.125.681.434,1.472.38,1.813-.038.239.027.495,0,.737-1.4,1.168-1.138,2.9-1.475,4.424-.052.234.051.5,0,.737l-.737,1.475c-.049.235.058.507,0,.737-2.693-.274-.737.633-.737,2.212,0,.245.013.493,0,.737-1.968-.42-1.459.983-1.817,2.2-1.217,4.13-1.816,8.676-2.606,12.546-.048.236.048.5,0,.737l-.734,1.1.734.376c-.633,3.708-2.059,6.333-2.949,9.585l-.737,2.212c-.063.228.063.509,0,.737-1.573.784-1.056,2.618-1.532,3.872-.246.648-1.329.534-1.32.9.015.574.74,1.527.64,2.606-.023.243.028.495,0,.737-2.084,2.2-1.778,4.882-2.212,7.373-.041.239.044.5,0,.737a19.428,19.428,0,0,0-2.758,6.411c-.119.86.566,1.591.546,1.7-.044.238.043.5,0,.737l-.737,2.212c-.045.237.047.5,0,.737l-.737,1.475c-.207,1.057.1,2.483-.189,3.843-.576,2.749-3.018,9.075-2.757,11.209.6,4.867,7.3,3.615,11.056,4.863l-1.483,4.416c-11.335-4.312-23.52-6.3-35.381-8.848-2.714-2.918-9.853-3.732-13.9-4.281a1.789,1.789,0,0,0-1.587.6c-.478-.062-.994.052-1.475,0,.523-2.724-4.267-1-5.065-2.311-.64-1.052.77-4.076-.834-5.062,1.3-5.965,2.915-11.8,4.424-17.7,2.015-7.875,4.082-15.844,5.975-23.886,1.436-6.1,3.123-10.748,3.522-16.3.156-2.18,2.934-3.538.088-5.528,3.5-15.543,7.231-30.992,11.059-46.45,5.636-1.536,1.432-1.228,1.43-1.883,0-1.15,1.954-3.515.045-4.753a9.847,9.847,0,0,1,.737-1.475c1.189-2.98.571-1.493.737-3.687.037-.482-.064-1,0-1.475,3.1.1,1.25-2.192,1.651-2.748,1.858-2.578.655-1.564,1.335-4.21.672-2.615,3.142-6.159,1.438-9.263,1.573-4.321,4.646-11.131,7.373-14.746.807,1.939.759-.587,1.475-1.475.544-.675,1.073-1.017,1.475-1.475.305-.347,1.051-1.054,1.475-1.475.521-.516.81-.911,1.475-1.475a5.166,5.166,0,0,0,.737-.737c10.261-4.412,14.4-6.375,25.805-2.212" transform="translate(-43.864 -147.306)" fill="#d2cbc2"/>
        <path id="Trazado_77" data-name="Trazado 77" d="M526.81,97.608c.712,1.264-.549,4.756,2.785,5.036,2.25.189,7.126-6.676,12.562-7.346,15.291-1.884,10.028,22.982.5,24.845-3.049.6-9.166-2.146-8.327,3.442.469,3.122,4.823,3.68,7.393,3.358-4.193,22.936,1.056,48.97,23.518,60.072-8.613,18.2-34.8,38.284-55.493,36.411-13.8-1.248-20.578-13.414-16.166-26.294,1.546-4.512,3.442-4.413,7.583-6.05,1.464,3.15-.779,11.8,3.338,12.55,1.02.184,3.1.182,3.722-.707,1.924-2.732-1.635-19.565-2.275-23.669a61.6,61.6,0,0,0,16.246-13.232c2.01-2.386,11.708-14.466,5.733-16.127-2.87-.8-7.88,6.835-10.526,9.123-32.179,27.825-57.667-3.89-59.761-36.843-.2-3.192-.578-25.7.135-26.837,2.011-3.208,11.333,4.079,10.965-2.621-.288-5.227-7.873-5.778-11.8-4.855.428-2.766-.9-8.716.668-10.762.828-1.077,19.575-7.4,22.9-8.8,6.036-2.54,11.772-5.73,17.711-8.455,1.206,10.947,7.778,21.573,15.879,28.735,2.032,1.8,12.337,8.348,12.72,9.027m-41.667-8.084c-1.747,1.826-1.1,5.349,1.694,5.732,2.286.313,4.212-1.7,7.3-1.525,3.052.171,9.246,4.939,10-.383.722-5.1-9.767-6.645-13.485-6.047a21.812,21.812,0,0,0-5.508,2.224m6.189,16.19c-4.248.38-5,9.471-.7,10.751,7.919,2.354,6.558-11.275.7-10.751m-25.806,1.477c-4.4.4-5.485,11.327.619,10.97,6.021-.352,4.662-11.444-.619-10.97m9.834,25.643c-.417-.387,3.591-8.85,3.68-10.77.166-3.569-4.467-4.2-5.94-1.992a128.167,128.167,0,0,0-4.346,12.469c-.251,6.249,10.613,8.629,11.065,3.577.347-3.891-4.124-2.973-4.458-3.284m18.962,7.5c-1.456.434-3.658,3.783-6.965,4.863-2.918.953-12.35.427-10.174,5.311,2.8,6.279,19.634-.718,21.482-6.6.88-2.8-1.678-4.374-4.343-3.579" transform="translate(-120.004 -15.722)" fill="#fcf8f2"/>
        <path id="Trazado_78" data-name="Trazado 78" d="M439.2,442.825c-22.586,1.128-38.535,21.747-50.126,39.081l-8.154-26.024,21.042-14.534c3.233-19.387,8.73-38.323,12.918-57.5,2.951,1.983,13.136,3.585,14.578,6.427,1.6,7.989,4.385,15.631,5.826,23.666,1.713,9.551,1.91,19.381,3.917,28.886" transform="translate(-100.07 -100.837)" fill="#fcf8f2"/>
        <path id="Trazado_79" data-name="Trazado 79" d="M337.491,549.744H185.239c-1.6,0-6.47-4.026-6.267-5.9H335.648c.974,0,2.175,4.857,1.843,5.9" transform="translate(-47.015 -142.869)" fill="#d2cbc2"/>
        <path id="Trazado_80" data-name="Trazado 80" d="M223.044,814.7c.125,2.526.015,5.418-1.823,7.386L196.861,838.3c-1.244.005-18.343-15.342-18.513-16.574l3.415-15.879Z" transform="translate(-46.852 -211.696)" fill="#fcf8f2"/>
        <path id="Trazado_81" data-name="Trazado 81" d="M498.984,543.44c-1.311,2.658-4.145,3.676-6.977,3.708l-88.512-.02c-3.007-.565-3.8-10.65-5.52-13.273Z" transform="translate(-104.549 -140.244)" fill="#fbf4eb"/>
        <path id="Trazado_82" data-name="Trazado 82" d="M290.965,815.961l-3.643,18.634c-15.452,6.532-27.2-2.146-38.4-11.716l5.652-15.1Z" transform="translate(-65.392 -212.203)" fill="#fcf8f2"/>
        <path id="Trazado_83" data-name="Trazado 83" d="M149.026,882.714c-3.226-1.006.577-9.2,2.285-10.987,2.213-2.314,9.137-5.348,12.331-6.839,4.136-1.931,15.017-6.961,18.915-7.7,2.1-.4,3.586.316,3.7,2.663-8.615,3.085-19.335,6.29-27.312,10.666-2.557,1.4-6.785,3.779-6.6,7.035H265.888c.125,1.043.2,5.161-1.106,5.161Z" transform="translate(-38.819 -225.157)" fill="#fbf4eb"/>
        <path id="Trazado_84" data-name="Trazado 84" d="M125.251,884.846v5.161H83.963c-.249-.967,1.024-5.161,1.843-5.161Z" transform="translate(-22.049 -232.45)" fill="#fbf4eb"/>
        <path id="Trazado_85" data-name="Trazado 85" d="M483.112,559.833c-.212.187.474,1.627-.465,1.489l-136.672-.015v-.737c2.286-.314,4.669-.459,6.97-.773Z" transform="translate(-90.888 -147.06)" fill="#fcf8f2"/>
        <path id="Trazado_86" data-name="Trazado 86" d="M462.746,528.562c-.855.372-.855-1.109,0-.737a2.687,2.687,0,0,1,0,.737" transform="translate(-121.396 -138.644)" fill="#55514d"/>
        <path id="Trazado_87" data-name="Trazado 87" d="M496.152,529.08c.5,2.314-1.289,1.191-3.173,1.618l-.513.594c-.49-.018-.986.026-1.475,0,.412-2.377-1.2-1.265-2.581-1.441-7.9-1.011-15.991-1.937-23.961-2.246-.49-.019-.984,0-1.475,0v-.737c1.543-.443-.027-.661,0-.737.062-.173,2.446-1.859,2.949-2.212,8.713-6.095,11.64.047,20.264,2.961a49.421,49.421,0,0,0,9.965,2.2" transform="translate(-121.624 -136.951)" fill="#55514d"/>
        <path id="Trazado_88" data-name="Trazado 88" d="M297.568,588.846c1.184.237-.126,2.306-.4,2.921a355.032,355.032,0,0,0-16.388,45.545c-.636,2.209-2.112,12.751-2.482,13.334-.181.286-1.391.33-1.732.855-1.045,1.606.4,6.779-2.6,6.651,6.5-22.25,11.859-49.362,23.594-69.306" transform="translate(-71.973 -154.691)" fill="#fbf4eb"/>
        <path id="Trazado_89" data-name="Trazado 89" d="M356.974,707.779c.061-4.049.19-.921,1.138-3.628,1.835-5.244,1.785-9.519,3.962-14.645,6.025-14.187,9.255-29.782,14.807-43.66Z" transform="translate(-93.778 -169.665)" fill="#fbf4eb"/>
        <path id="Trazado_90" data-name="Trazado 90" d="M182.559,698.846c2.847,1.989.069,3.347-.088,5.528-.4,5.55-2.086,10.195-3.522,16.3-1.893,8.042-3.96,16.011-5.975,23.886,2.453-15.3,6.167-30.556,9.585-45.713" transform="translate(-45.441 -183.588)" fill="#fbf4eb"/>
        <path id="Trazado_91" data-name="Trazado 91" d="M425.974,657.619c1.663-1.349,5.508-.2,7.541.2,11.417,2.228,22.858,4.7,34.254,7.073,1.354.282,2.877-.664,2.443,1.575-14.78-2.707-29.5-5.929-44.238-8.848" transform="translate(-111.904 -172.59)" fill="#fbf4eb"/>
        <path id="Trazado_92" data-name="Trazado 92" d="M464.951,529.846c7.97.309,16.06,1.235,23.961,2.246,1.378.176,2.993-.936,2.581,1.441-8-.428-16.008-1.371-23.972-2.235-1.388-.151-2.982.9-2.571-1.452" transform="translate(-122.126 -139.191)" fill="#d2cbc2"/>
        <path id="Trazado_93" data-name="Trazado 93" d="M638.559,559.544c-3.3-5.836-6.341-11.822-9.585-17.688l19.807.829c1.155,4.155,3.728,7.991,3.787,12.435-.352-.733-1.477-1.351-1.99-2.8-.592-1.668-.447-3.807-1.038-5.45-1.51-4.2-14.379-3.1-18.35-3.546,1.56,3.6,3.077,7.419,4.952,10.86.811,1.489,3.269,2.129,2.418,5.357" transform="translate(-165.232 -142.346)" fill="#fbf4eb"/>
        <path id="Trazado_94" data-name="Trazado 94" d="M256.61,733.846c1.5.784.413,2.495.194,3.571-1.183,5.819-2.829,13.436-4.531,19.04-.523,1.725.555,2.025-2.3,1.719,2.133-8.118,4.427-16.232,6.636-24.331" transform="translate(-65.669 -192.782)" fill="#fbf4eb"/>
        <path id="Trazado_95" data-name="Trazado 95" d="M275.513,629.5c-2.513-1.049-.621-1.422-.452-2.262,1.81-8.974,6.079-15.138,7.65-24.087l5.336-8.3c-4.754,11.677-8.23,22.929-12.534,34.653" transform="translate(-72.038 -156.267)" fill="#fbf4eb"/>
        <path id="Trazado_96" data-name="Trazado 96" d="M594.974,539.846l17.545.894,10.472,20.488c-1.029-1.659-3.219-4.139-3.894-5.356-1.424-2.573-5.02-12.443-6.459-13.41-3.659-2.46-5.36.3-6.969.361-.452.018-.237-1.346-.863-1.5-2.343-.571-7.2-1.03-9.833-1.478" transform="translate(-156.3 -141.818)" fill="#fbf4eb"/>
        <path id="Trazado_97" data-name="Trazado 97" d="M209.4,595.846c1.7,3.1-.766,6.647-1.438,9.263-.68,2.646.523,1.632-1.335,4.21-.4.556,1.449,2.844-1.651,2.748a84.838,84.838,0,0,1,4.424-16.221" transform="translate(-53.847 -156.53)" fill="#fbf4eb"/>
        <path id="Trazado_98" data-name="Trazado 98" d="M257.4,698.819a41.335,41.335,0,0,1-4.424,14.746c.79-3.87,1.389-8.416,2.606-12.546.358-1.217-.15-2.62,1.817-2.2" transform="translate(-66.457 -183.561)" fill="#fbf4eb"/>
        <path id="Trazado_99" data-name="Trazado 99" d="M515.508,533.321c-1.852.073-4.869.616-7.373.737a44.289,44.289,0,0,1-5.161,0l.513-.594c1.885-.427,3.674.7,3.173-1.618,2.971.442,6.383.565,8.848,1.475" transform="translate(-132.132 -139.717)" fill="#d2cbc2"/>
        <path id="Trazado_100" data-name="Trazado 100" d="M245.916,778.846c.745,1.711.344,6.727-.009,8.357-.142.66-2.027.2-1.492,2.32.146.58,3.251,1.141,1.5,1.857-1.27-.36-3.046.978-2.965-1.108.1-2.534,2.224-8.459,2.965-11.426" transform="translate(-63.823 -204.604)" fill="#fbf4eb"/>
        <path id="Trazado_101" data-name="Trazado 101" d="M192.457,798.314c-5.149-1.1-10.436-2.167-15.483-3.686a1.789,1.789,0,0,1,1.587-.6c4.044.55,11.183,1.363,13.9,4.281" transform="translate(-46.491 -208.588)" fill="#fbf4eb"/>
        <path id="Trazado_102" data-name="Trazado 102" d="M518.822,533.844c-.637,3.593,7.273-.644,6.636,2.949-5.145-.632-10.5-.666-15.483-2.212,2.5-.121,5.521-.664,7.373-.737.49-.019.985.022,1.475,0" transform="translate(-133.971 -140.24)" fill="#fbf4eb"/>
        <path id="Trazado_103" data-name="Trazado 103" d="M655.974,640.228l7.373-21.382c-.643,8.444-3.064,14.211-7.373,21.382" transform="translate(-172.325 -162.572)" fill="#fbf4eb"/>
        <path id="Trazado_104" data-name="Trazado 104" d="M269.974,654.905c.964-4.434,2.075-6.8,3.686-11.059-.569,3.417-1.114,8.621-3.686,11.059" transform="translate(-70.923 -169.139)" fill="#fbf4eb"/>
        <path id="Trazado_105" data-name="Trazado 105" d="M341.245,560.846v.737l-13.271,3.686c5.25-2.718,7.16-3.583,13.271-4.424" transform="translate(-86.159 -147.335)" fill="#fbf4eb"/>
        <path id="Trazado_106" data-name="Trazado 106" d="M166.447,784.846c1.6.987.194,4.01.834,5.062.8,1.309,5.587-.414,5.065,2.311-2.362-.255-4.924-1.394-7.377-1.483a37.962,37.962,0,0,0,1.479-5.89" transform="translate(-43.337 -206.18)" fill="#fbf4eb"/>
        <path id="Trazado_107" data-name="Trazado 107" d="M462.974,528.583a2.685,2.685,0,0,0,0-.737c-.027.077,1.543.294,0,.737" transform="translate(-121.624 -138.666)" fill="#d2cbc2"/>
        <path id="Trazado_108" data-name="Trazado 108" d="M464.086,524.846c-.5.352-2.887,2.039-2.949,2.212-.855-.372-.855,1.109,0,.737v.737c-.555-.005-4.5,1.323-5.156-.728Z" transform="translate(-119.787 -137.878)" fill="#d2cbc2"/>
        <path id="Trazado_109" data-name="Trazado 109" d="M624.016,672.846c-3.814,1.818-6.723,3.392-11.059,4.424-.479-1.6,2.6-2.406,3.563-2.7,2.39-.729,5.1-.906,7.5-1.725" transform="translate(-161.011 -176.758)" fill="#fbf4eb"/>
        <path id="Trazado_110" data-name="Trazado 110" d="M384.519,640.956c-2.594-1.068-.48-1.489-.2-2.769.482-2.205-.274-4.348,2.411-5.342-.846,2.7-.989,5.182-2.212,8.11" transform="translate(-100.678 -166.25)" fill="#fbf4eb"/>
        <path id="Trazado_111" data-name="Trazado 111" d="M347.974,749.278c1.435-4.949,2.816-11.843,4.473-16.392.288-.792,1.8-1.054,2.162-2.041-.185,1.9-1.54,5.727-2.185,7.767a80.025,80.025,0,0,1-4.45,10.665" transform="translate(-91.413 -191.994)" fill="#fbf4eb"/>
        <path id="Trazado_112" data-name="Trazado 112" d="M262.832,677.541c.054-.341-.505-1.132-.38-1.813l5.542-15.882c-1.172,5.909-2.367,12.195-5.161,17.7" transform="translate(-68.942 -173.342)" fill="#fbf4eb"/>
        <path id="Trazado_113" data-name="Trazado 113" d="M285.618,572.694c-2.23-.3-3.708-1.907-5.72-2.831-4.363-2-10.084-4.251-14.924-6.017a51.281,51.281,0,0,1,20.644,8.848" transform="translate(-69.609 -148.123)" fill="#fbf4eb"/>
        <path id="Trazado_114" data-name="Trazado 114" d="M342.771,767.219c.021-.141-.723-.813-.543-1.681.249-1.191,2.283-5.051,3.492-5.692-.661,2.5-1.082,5.464-2.949,7.373" transform="translate(-89.896 -199.613)" fill="#fbf4eb"/>
        <path id="Trazado_115" data-name="Trazado 115" d="M238.774,768.956c.02-.108-.665-.84-.546-1.7a19.428,19.428,0,0,1,2.758-6.411c-.492,2.679-.389,5.9-2.212,8.11" transform="translate(-62.579 -199.875)" fill="#fbf4eb"/>
        <path id="Trazado_116" data-name="Trazado 116" d="M202.449,626.846c1.909,1.237-.048,3.6-.045,4.753,0,.655,4.206.347-1.43,1.883.538-2.174.794-4.527,1.475-6.636" transform="translate(-52.796 -164.673)" fill="#fbf4eb"/>
        <path id="Trazado_117" data-name="Trazado 117" d="M244.746,746.219c.1-1.079-.624-2.031-.64-2.606-.01-.362,1.073-.248,1.32-.9.476-1.253-.041-3.088,1.532-3.872-.593,2.168-.294,5.425-2.212,7.373" transform="translate(-64.127 -194.096)" fill="#fbf4eb"/>
        <path id="Trazado_118" data-name="Trazado 118" d="M334.974,786.329c.81-2.544,1.324-5.238,2.189-7.765.731-2.139,2.272-6,3.709-7.719-.6,4.631-3.736,11.281-5.9,15.483" transform="translate(-87.998 -202.502)" fill="#fbf4eb"/>
        <path id="Trazado_119" data-name="Trazado 119" d="M642.974,566.846c1.053,1.833,5.794,8.376,4.319,10.251-.248.314-1.171-.049-1.37.072.828-4.091-2.067-6.656-2.949-10.322" transform="translate(-168.91 -148.911)" fill="#fbf4eb"/>
        <path id="Trazado_120" data-name="Trazado 120" d="M665.929,614.219c.072-2.341-.655-5.65.737-7.373-.014,2.314.612,5.675-.737,7.373" transform="translate(-174.907 -159.419)" fill="#fbf4eb"/>
        <path id="Trazado_121" data-name="Trazado 121" d="M296.186,583.482c2.042-4.458,1.078-3.74-2.212-6.636,4.057,1.02,6.3,3.771,2.212,6.636" transform="translate(-77.227 -151.538)" fill="#fbf4eb"/>
        <path id="Trazado_122" data-name="Trazado 122" d="M666.642,592.482c-1.242-1.374-1.242-5.261,0-6.636.158,2.183-.073,4.441,0,6.636" transform="translate(-174.883 -153.903)" fill="#fbf4eb"/>
        <path id="Trazado_123" data-name="Trazado 123" d="M635.974,667.518l.747-3.681c1.169-.285.355.849,1.186,1.488l1.017-.018a35.02,35.02,0,0,1-2.949,2.212" transform="translate(-167.071 -174.379)" fill="#fbf4eb"/>
        <path id="Trazado_124" data-name="Trazado 124" d="M241.974,757.219c.434-2.491.128-5.171,2.212-7.373-.273,2.384-.754,5.4-2.212,7.373" transform="translate(-63.567 -196.986)" fill="#fbf4eb"/>
        <path id="Trazado_125" data-name="Trazado 125" d="M646.825,656.846c-.988,2.736-3.7,4.241-5.9,5.9-.8-3.075,2.155-2.381,3.883-3.671.584-.436,1.2-1.475,2.016-2.227" transform="translate(-168.337 -172.554)" fill="#fbf4eb"/>
        <path id="Trazado_126" data-name="Trazado 126" d="M203.95,623.532c.044-1.181-.458-3.057.737-3.686-.166,2.193.451.706-.737,3.686" transform="translate(-53.56 -162.834)" fill="#fbf4eb"/>
        <path id="Trazado_127" data-name="Trazado 127" d="M259.467,694.829c-.173.686.335,1.837-.737,2.212,0-1.579-1.955-2.486.737-2.212" transform="translate(-67.788 -182.52)" fill="#fbf4eb"/>
        <path id="Trazado_128" data-name="Trazado 128" d="M248.963,769.829c2.31-.409,2.191,1.927,0,1.475.11-.428-.11-1.048,0-1.475" transform="translate(-65.395 -202.222)" fill="#fbf4eb"/>
        <path id="Trazado_129" data-name="Trazado 129" d="M247.974,737.058l.737-2.212c-.251.915-.589,1.681-.737,2.212" transform="translate(-65.143 -193.045)" fill="#fbf4eb"/>
        <path id="Trazado_130" data-name="Trazado 130" d="M260.974,689.27c.336-1.523.074-3.256,1.475-4.424-.175,1.57-.2,3.264-1.475,4.424" transform="translate(-68.558 -179.91)" fill="#fbf4eb"/>
        <path id="Trazado_131" data-name="Trazado 131" d="M237.974,775.058l.737-2.212a10.766,10.766,0,0,1-.737,2.212" transform="translate(-62.516 -203.028)" fill="#fbf4eb"/>
        <path id="Trazado_132" data-name="Trazado 132" d="M222.449,573.846c-.716.888-.668,3.414-1.475,1.475.437-.58.734-1.2,1.475-1.475" transform="translate(-58.05 -150.75)" fill="#fbf4eb"/>
        <path id="Trazado_133" data-name="Trazado 133" d="M346.974,758.321l.737-1.475a4.636,4.636,0,0,1-.737,1.475" transform="translate(-91.151 -198.824)" fill="#fbf4eb"/>
        <path id="Trazado_134" data-name="Trazado 134" d="M236.974,778.321l.737-1.475a2.5,2.5,0,0,1-.737,1.475" transform="translate(-62.253 -204.078)" fill="#fbf4eb"/>
        <path id="Trazado_135" data-name="Trazado 135" d="M292.974,592.27c.764-1.854,1.559-2.993,2.212-4.424Z" transform="translate(-76.965 -154.428)" fill="#fbf4eb"/>
        <path id="Trazado_136" data-name="Trazado 136" d="M634.711,572.321c-.346-.576-.556-1.186-.737-1.475Z" transform="translate(-166.546 -149.962)" fill="#fbf4eb"/>
        <path id="Trazado_137" data-name="Trazado 137" d="M320.974,570.058a36.144,36.144,0,0,1,3.686-2.212l-3.324,2.935Z" transform="translate(-84.32 -149.174)" fill="#fbf4eb"/>
        <path id="Trazado_138" data-name="Trazado 138" d="M629.974,671.058c.947-1.183,2.412-1.56,3.686-2.212-.581,1.873-2.544,1.623-3.686,2.212" transform="translate(-165.495 -175.707)" fill="#fbf4eb"/>
        <path id="Trazado_139" data-name="Trazado 139" d="M259.974,693.321l.737-1.475a2.75,2.75,0,0,1-.737,1.475" transform="translate(-68.296 -181.749)" fill="#fbf4eb"/>
        <path id="Trazado_140" data-name="Trazado 140" d="M252.713,721.321l-.734-.376.734-1.1c-.09.445.079,1.014,0,1.475" transform="translate(-66.195 -189.105)" fill="#fbf4eb"/>
        <path id="Trazado_141" data-name="Trazado 141" d="M666.717,598.583l-.723-.369.723-.369c0,.246,0,.492,0,.737" transform="translate(-174.958 -157.055)" fill="#fbf4eb"/>
        <path id="Trazado_142" data-name="Trazado 142" d="M228.974,567.583c.246-.206.484-.628.737-.737a5.163,5.163,0,0,1-.737.737" transform="translate(-60.152 -148.911)" fill="#fbf4eb"/>
        <path id="Trazado_143" data-name="Trazado 143" d="M224.974,571.321l1.475-1.475c-.424.421-1.169,1.127-1.475,1.475" transform="translate(-59.101 -149.699)" fill="#fbf4eb"/>
        <path id="Trazado_144" data-name="Trazado 144" d="M654.716,649.583l-.723-.374.723-.363c-.113.173.114.571,0,.737" transform="translate(-171.805 -170.453)" fill="#fbf4eb"/>
        <path id="Trazado_145" data-name="Trazado 145" d="M610.149,168.975c-1.981,1.648-5.439,1.18-5.708-1.653-.172-1.816,4.469-10.017,5-13.417,1.135-7.231-.223-11.757-4.081-17.685-1.776-2.729-9.095-10.086-9.6-11.778-1.1-3.67-.226-14.1-.964-18.943-2.942-19.293-32.206-34-44.539-47.624-1.851-2.045-10.023-12.5-8.878-14.75,3.308-6.513,8.588,4.352,10.752,6.979,14.5,17.6,45.429,30.732,49.3,54.657.759,4.688-.056,13.414,1.143,17.29,1.742,5.634,12.233,11.289,13.617,21.773.767,5.809-1.354,21.251-6.044,25.153" transform="translate(-142.192 -10.791)" fill="#131313"/>
        <path id="Trazado_146" data-name="Trazado 146" d="M28.184,563.583c2.338,1.5,4.571,3.12,7.373,3.686a8.491,8.491,0,0,1,.737.737c.094.088-.036.591.363.723l.374-.723A58.871,58.871,0,0,1,50.3,579.8l.007,1.473.73-.736c6.329,7.807,9.822,14.918,10.322,25.068.3,6.144.114,12.976,0,19.17-.009.491.018.984,0,1.475l-.745,2.954-5.891-2.217c-.282-.173-.484-.577-.737-.737l-.363-.723-.374.723a62.679,62.679,0,0,1-14.746-13.271l.723-.367-1.461-1.107c-.194-.254-.531-.451-.737-.737l-.737-1.475c-.173-.264-.567-.462-.737-.737-.951-2.414-1.41-5.946-3.686-7.373-.215-.469-.491-.88-.737-1.475l.615-.447c-.176-1.371-.408-2.925-2.09-2.5a53.215,53.215,0,0,1-2.212-9.585c1.233-2.334.225-6.426-.01-9.24-.116-1.4.835-2.966-1.465-2.557.007-.491-.012-.984,0-1.475a3.948,3.948,0,0,0,.769-1.783c.188-3.068-.192-6.207-.032-9.277.4.243.922.383,1.475.737" transform="translate(-6.822 -147.86)" fill="#d2cbc2"/>
        <path id="Trazado_147" data-name="Trazado 147" d="M115.189,618.75a63.829,63.829,0,0,1,6.6-8.492c1.7-1.816,7.42-7.65,9.258-8.46,1.25-.551.974.482,1.172,1.009,7.341,19.513-.923,44.335-14.822,58.707a84.2,84.2,0,0,1-6.631,6.271c-.74.566-.934,1.431-2.213,1.1-.843-10.62-2.3-21.3.254-31.822l-.257-3.565c.251-.558.571-1.089.737-1.475.044-.1.965-.408,1.32-1.228,1.681-3.883,3.2-8.04,4.578-12.043" transform="translate(-28.207 -158.052)" fill="#d2cbc2"/>
        <path id="Trazado_148" data-name="Trazado 148" d="M72.694,718.421c-23.725.765-46.41-11.6-59.72-30.952,25.668-5.149,48.216,8.5,59.72,30.952" transform="translate(-3.408 -180.314)" fill="#d2cbc2"/>
        <path id="Trazado_149" data-name="Trazado 149" d="M108.093,644.846l.257,3.565c-2.554,10.519-1.1,21.2-.254,31.822,1.279.333,1.474-.532,2.213-1.1a84.206,84.206,0,0,0,6.631-6.271l-8.848,9.224c-1.592.689-2.139-7.119-2.243-8.825-.426-7.015-.547-22.226,2.243-28.417" transform="translate(-27.746 -169.402)" fill="#fbf4eb"/>
        <path id="Trazado_150" data-name="Trazado 150" d="M73.974,640.016c.114-6.193.3-13.026,0-19.17,2.471,5.847,1.76,13.184,0,19.17" transform="translate(-19.433 -163.097)" fill="#fbf4eb"/>
        <path id="Trazado_151" data-name="Trazado 151" d="M25.972,579.822c2.3-.409,1.349,1.152,1.465,2.557.234,2.814,1.242,6.906.01,9.24-.786-4.436-1.544-7.043-1.475-11.8" transform="translate(-6.822 -152.303)" fill="#fbf4eb"/>
        <path id="Trazado_152" data-name="Trazado 152" d="M109.974,638.117c.207-5.21,3.181-9.158,5.9-13.271-1.382,4-2.9,8.16-4.578,12.043-.355.821-1.277,1.127-1.32,1.228" transform="translate(-28.89 -164.148)" fill="#fbf4eb"/>
        <path id="Trazado_153" data-name="Trazado 153" d="M26.71,562.577c-.161,3.069.22,6.209.032,9.277a3.948,3.948,0,0,1-.769,1.783l0-11.426c.4-1.047.706.345.741.366" transform="translate(-6.822 -147.591)" fill="#fbf4eb"/>
        <path id="Trazado_154" data-name="Trazado 154" d="M71.61,648.846c-.052,1.468.043,2.954,0,4.42-.651.765-5.722-3.127-6.632-3.683l5.891,2.217Z" transform="translate(-17.069 -170.453)" fill="#fbf4eb"/>
        <path id="Trazado_155" data-name="Trazado 155" d="M37.66,622.219a51.954,51.954,0,0,1-3.686-7.373c2.277,1.427,2.735,4.959,3.686,7.373" transform="translate(-8.925 -161.521)" fill="#fbf4eb"/>
        <path id="Trazado_156" data-name="Trazado 156" d="M30.974,608.821c1.682-.422,1.913,1.132,2.09,2.5l-.615.447a22.926,22.926,0,0,1-1.475-2.949" transform="translate(-8.137 -159.92)" fill="#fbf4eb"/>
        <path id="Trazado_157" data-name="Trazado 157" d="M40.711,627.321a8.622,8.622,0,0,1-.737-1.475Z" transform="translate(-10.501 -164.411)" fill="#fbf4eb"/>
        <path id="Trazado_158" data-name="Trazado 158" d="M36.347,567.532c-2.8-.566-5.035-2.187-7.373-3.686a21.228,21.228,0,0,1,7.373,3.686" transform="translate(-7.612 -148.123)" fill="#fbf4eb"/>
        <path id="Trazado_159" data-name="Trazado 159" d="M59.711,586.583l-.73.736-.007-1.473c.223.261.52.47.737.737" transform="translate(-15.493 -153.903)" fill="#fbf4eb"/>
        <path id="Trazado_160" data-name="Trazado 160" d="M63.711,648.588c-.175-.111-.567.113-.737,0l.374-.723Z" transform="translate(-16.543 -170.195)" fill="#fbf4eb"/>
        <path id="Trazado_161" data-name="Trazado 161" d="M39.974,569.846h.737l-.374.723c-.4-.132-.27-.636-.363-.723" transform="translate(-10.501 -149.699)" fill="#fbf4eb"/>
        <path id="Trazado_162" data-name="Trazado 162" d="M42.711,630.321c-.314-.386-.431-1.074-.737-1.475l1.461,1.107Z" transform="translate(-11.027 -165.199)" fill="#fbf4eb"/>
        <path id="Trazado_163" data-name="Trazado 163" d="M252.4,461.173c-13.818,13.818-35.668-18.24-21.1-27.363,13.093-8.2,31.929,16.529,21.1,27.363m-5.122-4.4c6.432-5.236-5.83-22.232-12.306-17.085-6.37,5.062,5.286,22.8,12.306,17.085" transform="translate(-59.499 -113.533)" fill="#131313"/>
        <path id="Trazado_164" data-name="Trazado 164" d="M501.467,168.946c2.665-.795,5.224.782,4.343,3.579-1.848,5.878-18.686,12.875-21.482,6.6-2.176-4.885,7.256-4.358,10.174-5.311,3.307-1.08,5.508-4.429,6.965-4.863" transform="translate(-127.149 -44.328)" fill="#131313"/>
        <path id="Trazado_165" data-name="Trazado 165" d="M479.614,153.836c.335.31,4.806-.607,4.458,3.283-.451,5.053-11.315,2.672-11.065-3.576a128.367,128.367,0,0,1,4.347-12.469c1.473-2.209,6.106-1.577,5.94,1.991-.089,1.921-4.1,10.383-3.68,10.77" transform="translate(-124.259 -36.723)" fill="#131313"/>
        <path id="Trazado_166" data-name="Trazado 166" d="M494.895,99.263A21.807,21.807,0,0,1,500.4,97.04c3.718-.6,14.207.947,13.485,6.047-.753,5.322-6.946.554-10,.383-3.089-.173-5.014,1.839-7.3,1.525-2.791-.383-3.44-3.906-1.693-5.732" transform="translate(-129.755 -25.461)" fill="#131313"/>
        <path id="Trazado_167" data-name="Trazado 167" d="M502.359,122.052c5.861-.523,7.221,13.1-.7,10.751-4.3-1.279-3.552-10.371.7-10.751" transform="translate(-131.03 -32.059)" fill="#131313"/>
        <path id="Trazado_168" data-name="Trazado 168" d="M467.339,124.054c5.281-.474,6.639,10.618.619,10.97-6.1.357-5.02-10.575-.619-10.97" transform="translate(-121.817 -32.585)" fill="#131313"/>
        <path id="Trazado_169" data-name="Trazado 169" d="M249.646,459.111c-7.021,5.714-18.676-12.024-12.306-17.085,6.476-5.146,18.738,11.85,12.306,17.085" transform="translate(-61.866 -115.869)" fill="#fcf8f2"/>
      </g>
    </g>
  </g>
</svg>
