<?xml version="1.0" encoding="UTF-8"?>
<svg id="Capa_2" data-name="Capa 2" xmlns="http://www.w3.org/2000/svg" viewBox="0 0 96.55 111.47">
  <defs>
    <style>
      .cls-1 {
        fill: #ec6620;
      }
    </style>
  </defs>
  <g id="Capa_1-2" data-name="Capa 1">
    <path class="cls-1" d="M22.9,111.47c-3.9,0-7.66-.8-11.08-2.73C5.82,105.36-.43,97.96.02,89.7c.43-7.68,5.87-12.67,8.48-15.07,7.22-6.62,13.77-7.97,20.1-9.28.36-.07.71-.15,1.07-.22,1.43-4.49,2.54-8.18,3.52-11.41,2.24-7.4,3.85-12.75,6.99-20.43,2.2-5.39,5.52-13.53,9.18-20.29C54.61,3.31,59-.67,63.61.09c8.25,1.37,9.29,17.83,9.38,19.7.43,8.78-2.1,18.39-7.13,27.07-5.21,9-12.79,16.31-21.33,20.56-3.43,1.71-6.63,2.74-9.59,3.48-.77,2.37-1.63,4.95-2.59,7.77-2.02,5.95-4.14,11.93-6.3,17.77l-6.37-2.35c2.14-5.78,4.23-11.7,6.24-17.6.46-1.36.9-2.66,1.31-3.9-4.82,1.08-9.23,2.53-14.15,7.05-2.25,2.06-6.02,5.52-6.29,10.44-.28,5.06,4.09,10.34,8.35,12.74,7.49,4.22,18.27.46,26-3.44,8.87-4.48,16.2-10.3,18.23-11.97,19.65-16.2,27.43-38.71,30.5-54.75l6.67,1.28c-3.27,17.13-11.63,41.23-32.85,58.72-4.43,3.66-23.87,18.82-40.81,18.82ZM62.51,6.82c-.49.18-2.99,1.48-7.65,10.31-3.3,6.26-6.36,13.76-8.38,18.72-3.01,7.38-4.59,12.6-6.77,19.83-.67,2.21-1.4,4.64-2.25,7.38,1.32-.47,2.67-1.04,4.07-1.73,14.87-7.4,25.49-25.12,24.7-41.22-.14-2.95-.69-6.24-1.46-8.81-.9-3-1.87-4.2-2.24-4.49Z"/>
  </g>
</svg>